<svg width="22" height="22" viewBox="0 0 22 22" fill="none" xmlns="http://www.w3.org/2000/svg">
<g opacity="0.28">
<path d="M13.0898 11.9734V6.84543C13.0898 6.27838 12.4219 5.97532 11.9952 6.34872L5.28113 12.2235C5.06619 12.4116 4.7298 12.259 4.7298 11.9734V1.87094C4.7298 1.50643 4.43431 1.21094 4.0698 1.21094H1.2098C0.845297 1.21094 0.549805 1.50643 0.549805 1.87094V19.9994C0.549805 20.4366 0.904181 20.7909 1.34133 20.7909H4.7298H13.0898H20.6583C21.0954 20.7909 21.4498 20.4366 21.4498 19.9994V6.84543C21.4498 6.27838 20.7819 5.97532 20.3552 6.34872L13.6411 12.2235C13.4262 12.4116 13.0898 12.259 13.0898 11.9734ZM10.4343 18.4259H7.38535C7.07301 18.4259 6.8198 18.1727 6.8198 17.8604V15.3615C6.8198 15.0491 7.07301 14.7959 7.38535 14.7959H10.4343C10.7466 14.7959 10.9998 15.0491 10.9998 15.3615V17.8604C10.9998 18.1727 10.7466 18.4259 10.4343 18.4259ZM18.7943 18.4259H15.7453C15.433 18.4259 15.1798 18.1727 15.1798 17.8604V15.3615C15.1798 15.0491 15.433 14.7959 15.7453 14.7959H18.7943C19.1066 14.7959 19.3598 15.0491 19.3598 15.3615V17.8604C19.3598 18.1727 19.1066 18.4259 18.7943 18.4259Z" fill="#0D2665"/>
</g>
</svg>
