<svg width="32" height="32" viewBox="0 0 32 32" fill="none" xmlns="http://www.w3.org/2000/svg">
<g clip-path="url(#clip0_1_643)">
<path d="M5.89128 10.6207C5.89128 10.6362 5.88221 10.6501 5.88221 10.6661C5.88551 10.6922 5.89068 10.718 5.89768 10.7434C6.05311 13.3158 7.18041 15.7331 9.05128 17.5055C10.4247 18.8112 11.2014 20.6238 11.1995 22.5189V22.9327C10.5672 22.9299 9.99309 23.3014 9.73649 23.8793C9.47989 24.4572 9.5894 25.1322 10.0155 25.5994C9.5894 26.0666 9.47989 26.7415 9.73649 27.3195C9.99309 27.8974 10.5672 28.2689 11.1995 28.2661H11.7697C12.0369 30.3988 13.8501 31.9991 15.9995 31.9991C18.149 31.9991 19.9622 30.3988 20.2294 28.2661H20.7995C21.4319 28.2689 22.006 27.8974 22.2626 27.3195C22.5192 26.7415 22.4097 26.0666 21.9835 25.5994C22.4097 25.1322 22.5192 24.4572 22.2626 23.8793C22.006 23.3014 21.4319 22.9299 20.7995 22.9327V22.5189C20.7987 20.6237 21.5759 18.8113 22.9494 17.5055C25.8211 14.7993 26.8607 10.6723 25.6138 6.9286C24.3668 3.18493 21.0601 0.505535 17.1393 0.0617871C16.5968 0.0065003 16.0507 -0.00633873 15.5062 0.0233871C15.4923 0.0223205 15.4801 0.0153871 15.4662 0.0153871C15.445 0.0182642 15.424 0.0225402 15.4033 0.0281871C13.1154 0.150078 10.9388 1.05379 9.23741 2.58819C7.09448 4.51106 5.86902 7.25356 5.86621 10.1327C5.86621 10.2965 5.88381 10.4575 5.89128 10.6207ZM9.78461 16.7295C8.22858 15.2757 7.24123 13.3152 6.99954 11.1994H8.94354C8.96949 11.1961 8.99516 11.191 9.02034 11.1839C9.05891 11.1803 9.09699 11.1726 9.13394 11.161C9.17024 11.1446 9.20459 11.1242 9.23634 11.1002C9.25882 11.0889 9.28039 11.0759 9.30088 11.0613C9.30461 11.0613 9.30568 11.0543 9.30888 11.0511C9.33758 11.0203 9.36264 10.9863 9.38354 10.9498C9.40029 10.9284 9.41545 10.9057 9.42888 10.8821C9.43865 10.8534 9.44597 10.824 9.45074 10.7941C9.46275 10.7566 9.47061 10.718 9.47421 10.6789C9.47421 10.6746 9.47421 10.6709 9.47421 10.6661C9.47104 10.6401 9.46569 10.6144 9.45821 10.5893C9.45518 10.5506 9.44748 10.5125 9.43528 10.4757C9.41921 10.4392 9.3988 10.4048 9.37448 10.3733C9.36323 10.3507 9.3504 10.3289 9.33608 10.3082C9.16141 10.1135 9.06524 9.86093 9.06621 9.59939C9.06621 9.01028 9.54377 8.53272 10.1329 8.53272C10.722 8.53272 11.1995 9.01028 11.1995 9.59939C11.1998 9.86128 11.1026 10.1139 10.927 10.3082C10.9125 10.3288 10.8997 10.3506 10.8886 10.3733C10.8644 10.4049 10.844 10.4393 10.8278 10.4757C10.8156 10.5125 10.8079 10.5506 10.8049 10.5893C10.7974 10.6144 10.7921 10.6401 10.7889 10.6661V10.6789C10.7924 10.7182 10.8003 10.757 10.8123 10.7946C10.8171 10.8243 10.8244 10.8536 10.8342 10.8821C10.8476 10.906 10.863 10.9288 10.8801 10.9503C10.9006 10.9868 10.9255 11.0206 10.9542 11.0511C10.9574 11.0543 10.9585 11.0586 10.9622 11.0613C10.9879 11.0809 11.0157 11.0979 11.0449 11.1119C11.0691 11.1302 11.095 11.146 11.1222 11.1594C11.1848 11.1853 11.2518 11.1988 11.3195 11.1994H14.9329V15.4661C14.9361 15.492 14.9413 15.5177 14.9483 15.5429C14.951 15.6223 14.9805 15.6984 15.0321 15.7589C15.0435 15.7814 15.0565 15.8032 15.071 15.8239C15.071 15.8271 15.0779 15.8282 15.0811 15.8314C15.112 15.8604 15.1462 15.8857 15.183 15.9066C15.2044 15.9232 15.2268 15.9383 15.2502 15.9519C15.2789 15.9615 15.3083 15.9688 15.3382 15.9738C15.3757 15.9856 15.4143 15.9933 15.4534 15.9967H15.4662C15.5298 15.9839 15.5935 15.9711 15.6571 15.9583C15.6934 15.9421 15.7276 15.9217 15.759 15.8975C15.7816 15.8861 15.8033 15.8731 15.8241 15.8586C16.0188 15.684 16.2713 15.5878 16.5329 15.5887C17.122 15.5887 17.5995 16.0663 17.5995 16.6554C17.5995 17.2445 17.122 17.7221 16.5329 17.7221C16.2711 17.7226 16.0185 17.6254 15.8246 17.4495C15.8031 17.4343 15.7805 17.4208 15.7569 17.409C15.7258 17.3858 15.6924 17.366 15.6571 17.3498C15.6194 17.3377 15.5804 17.3299 15.5409 17.3263C15.5164 17.3195 15.4914 17.3145 15.4662 17.3114C15.4621 17.312 15.458 17.3129 15.4539 17.3141C15.4119 17.3172 15.3703 17.3255 15.3302 17.3386C15.3034 17.3432 15.2771 17.3498 15.2513 17.3583C15.2246 17.3727 15.1994 17.3897 15.1761 17.409C15.1422 17.4286 15.1105 17.4518 15.0817 17.4783C15.0785 17.4821 15.0742 17.4831 15.071 17.4863C15.0555 17.5078 15.0419 17.5307 15.0305 17.5546C15.007 17.5853 14.9871 17.6186 14.9713 17.6538C14.9589 17.6919 14.951 17.7312 14.9478 17.7711C14.9409 17.7952 14.936 17.8198 14.9329 17.8447V22.9327H12.2662V22.5189C12.2681 20.33 11.37 18.2366 9.78248 16.7295H9.78461ZM15.9995 30.9327C14.4387 30.9308 13.1061 29.8047 12.8438 28.2661H19.1553C18.893 29.8047 17.5604 30.9308 15.9995 30.9327ZM20.7995 27.1994H11.1995C10.905 27.1994 10.6662 26.9606 10.6662 26.6661C10.6662 26.3715 10.905 26.1327 11.1995 26.1327H20.7995C21.0941 26.1327 21.3329 26.3715 21.3329 26.6661C21.3329 26.9606 21.0941 27.1994 20.7995 27.1994ZM21.3329 24.5327C21.3329 24.8273 21.0941 25.0661 20.7995 25.0661H11.1995C10.905 25.0661 10.6662 24.8273 10.6662 24.5327C10.6662 24.2382 10.905 23.9994 11.1995 23.9994H20.7995C21.0941 23.9994 21.3329 24.2382 21.3329 24.5327ZM22.2182 16.7279C20.6304 18.2355 19.7318 20.3293 19.7329 22.5189V22.9327H15.9995V18.7125C16.1733 18.7606 16.3526 18.7863 16.5329 18.7887C17.3672 18.8009 18.132 18.3256 18.4905 17.5721C18.8489 16.8187 18.7352 15.9254 18.1995 15.2858C17.6637 14.6461 16.8042 14.3775 15.9995 14.5983V11.1994H18.7425C18.5039 12.0674 18.8359 12.9917 19.5722 13.5096C20.3085 14.0275 21.2906 14.0275 22.0269 13.5096C22.7632 12.9917 23.0952 12.0674 22.8566 11.1994H25.0049C24.7602 13.3141 23.7726 15.2733 22.2182 16.7279ZM17.0235 1.12205C21.2001 1.6033 24.5012 4.88678 25.0049 9.06072C25.0456 9.4166 25.0661 9.77451 25.0662 10.1327H21.9889C21.9634 10.1357 21.9383 10.1409 21.9137 10.1482C21.8745 10.1512 21.8358 10.1589 21.7985 10.1711C21.7428 10.2043 21.6872 10.2375 21.6315 10.2709C21.6278 10.2709 21.6267 10.2778 21.6235 10.281C21.5948 10.3115 21.57 10.3453 21.5494 10.3818C21.5323 10.4033 21.517 10.4261 21.5035 10.4501C21.4938 10.4785 21.4864 10.5078 21.4817 10.5375C21.4696 10.5751 21.4618 10.6139 21.4582 10.6533C21.4582 10.6575 21.4555 10.6613 21.4555 10.6661C21.4587 10.6921 21.4641 10.7177 21.4715 10.7429C21.4746 10.7815 21.4823 10.8197 21.4945 10.8565C21.5107 10.8929 21.5311 10.9272 21.5553 10.9589C21.5663 10.9815 21.5792 11.0033 21.5937 11.0239C21.7693 11.2182 21.8664 11.4708 21.8662 11.7327C21.8662 12.3218 21.3886 12.7994 20.7995 12.7994C20.2104 12.7994 19.7329 12.3218 19.7329 11.7327C19.7326 11.4708 19.8298 11.2182 20.0054 11.0239C20.0197 11.0032 20.0326 10.9814 20.0438 10.9589C20.0681 10.9273 20.0885 10.8929 20.1046 10.8565C20.1168 10.8197 20.1245 10.7815 20.1275 10.7429C20.135 10.7177 20.1404 10.6921 20.1435 10.6661C20.1435 10.6613 20.1409 10.6575 20.1409 10.6533C20.1373 10.6141 20.1294 10.5755 20.1174 10.5381C20.1126 10.5082 20.1053 10.4787 20.0955 10.4501C20.0821 10.4264 20.067 10.4038 20.0502 10.3823C20.0293 10.3458 20.0043 10.3118 19.9755 10.281C19.9723 10.2778 19.9713 10.2735 19.9675 10.2709C19.9469 10.2562 19.9251 10.2432 19.9025 10.2319C19.8709 10.2079 19.8367 10.1875 19.8006 10.1711C19.7633 10.1589 19.7246 10.1512 19.6854 10.1482C19.6608 10.1409 19.6357 10.1357 19.6102 10.1327H15.9995V6.52205C15.9963 6.49611 15.9911 6.47044 15.9841 6.44525C15.9808 6.40664 15.9731 6.36853 15.9611 6.33165C15.9449 6.2953 15.9245 6.26094 15.9003 6.22925C15.8889 6.20668 15.8759 6.18493 15.8614 6.16419C15.8614 6.16099 15.8545 6.15992 15.8513 6.15672C15.8212 6.12838 15.7879 6.10367 15.7521 6.08312C15.7301 6.06566 15.7067 6.04997 15.6822 6.03619C15.6542 6.02683 15.6255 6.0197 15.5963 6.01485C15.5584 6.00285 15.5192 5.99498 15.4795 5.99139C15.4747 5.99139 15.471 5.99139 15.4662 5.99139C15.4401 5.99459 15.4142 5.99976 15.3889 6.00685C15.3505 6.01048 15.3126 6.01817 15.2758 6.02979C15.2392 6.04615 15.2047 6.06674 15.1729 6.09112C15.1504 6.10217 15.1288 6.11501 15.1083 6.12952C14.9136 6.30415 14.6611 6.40031 14.3995 6.39939C13.8104 6.39939 13.3329 5.92182 13.3329 5.33272C13.3329 4.74362 13.8104 4.26605 14.3995 4.26605C14.6614 4.26586 14.914 4.36299 15.1083 4.53859C15.1291 4.55308 15.1508 4.56609 15.1734 4.57752C15.2052 4.60155 15.2395 4.62194 15.2758 4.63832C15.3128 4.64999 15.3508 4.65768 15.3894 4.66125C15.4146 4.6683 15.4403 4.67347 15.4662 4.67672H15.4795C15.5189 4.67338 15.5577 4.66551 15.5953 4.65325C15.6248 4.64841 15.6538 4.64128 15.6822 4.63192C15.7062 4.61813 15.7292 4.60262 15.751 4.58552C15.7872 4.56484 15.8209 4.53996 15.8513 4.51139C15.8545 4.50819 15.8587 4.50712 15.8614 4.50392C15.8759 4.48317 15.8889 4.46143 15.9003 4.43885C15.9245 4.40717 15.9449 4.37281 15.9611 4.33645C15.9731 4.29958 15.9808 4.26147 15.9841 4.22285C15.9913 4.1968 15.9964 4.17023 15.9995 4.14339V1.06605C16.3416 1.0665 16.6834 1.08519 17.0235 1.12205ZM9.94941 3.38019C11.3353 2.12927 13.0779 1.34323 14.9329 1.13219V3.27565C14.0649 3.03711 13.1405 3.36908 12.6226 4.10537C12.1047 4.84165 12.1047 5.82379 12.6226 6.56007C13.1405 7.29636 14.0649 7.62833 14.9329 7.38979V10.1327H12.1899C12.4285 9.26472 12.0965 8.34039 11.3602 7.82249C10.6239 7.30459 9.64181 7.30459 8.90552 7.82249C8.16924 8.34039 7.83727 9.26472 8.07581 10.1327H6.93288C6.93505 7.55589 8.0316 5.10125 9.94941 3.38019Z" fill="#135CFD"/>
<path d="M31.4667 9.59961H27.7333C27.4388 9.59961 27.2 9.83839 27.2 10.1329C27.2 10.4275 27.4388 10.6663 27.7333 10.6663H31.4667C31.7612 10.6663 32 10.4275 32 10.1329C32 9.83839 31.7612 9.59961 31.4667 9.59961Z" fill="#135CFD"/>
<path d="M26.1623 4.79884C26.2559 4.79904 26.3479 4.77438 26.4289 4.72737L29.6615 2.86071C29.9144 2.71244 30.0002 2.38783 29.8536 2.13394C29.707 1.88005 29.383 1.79207 29.1281 1.93697L25.8956 3.80364C25.6866 3.92434 25.5847 4.17039 25.6471 4.40355C25.7096 4.6367 25.9209 4.79883 26.1623 4.79884Z" fill="#135CFD"/>
<path d="M25.6995 15.7335C25.5522 15.9886 25.6396 16.3148 25.8947 16.4621L29.1272 18.3287C29.3821 18.4736 29.7061 18.3857 29.8527 18.1318C29.9993 17.8779 29.9134 17.5533 29.6605 17.405L26.428 15.5383C26.1729 15.3911 25.8467 15.4785 25.6995 15.7335Z" fill="#135CFD"/>
<path d="M0.533333 10.6663H4.26667C4.56122 10.6663 4.8 10.4275 4.8 10.1329C4.8 9.83839 4.56122 9.59961 4.26667 9.59961H0.533333C0.238781 9.59961 0 9.83839 0 10.1329C0 10.4275 0.238781 10.6663 0.533333 10.6663Z" fill="#135CFD"/>
<path d="M2.33907 2.8622L5.5716 4.72887C5.7367 4.82566 5.94101 4.82657 6.10697 4.73124C6.27293 4.63592 6.37508 4.45898 6.37466 4.2676C6.37424 4.07622 6.27131 3.89973 6.10493 3.80514L2.8724 1.93847C2.7073 1.84168 2.50299 1.84077 2.33703 1.9361C2.17107 2.03142 2.06892 2.20836 2.06934 2.39974C2.06976 2.59112 2.17269 2.76761 2.33907 2.8622Z" fill="#135CFD"/>
<path d="M5.5716 15.5366L2.33907 17.4032C2.17269 17.4978 2.06976 17.6743 2.06934 17.8657C2.06892 18.0571 2.17107 18.234 2.33703 18.3294C2.50299 18.4247 2.7073 18.4238 2.8724 18.327L6.10493 16.4603C6.35785 16.312 6.44367 15.9874 6.29708 15.7335C6.15049 15.4797 5.82646 15.3917 5.5716 15.5366Z" fill="#135CFD"/>
</g>
<defs>
<clipPath id="clip0_1_643">
<rect width="32" height="32" fill="white"/>
</clipPath>
</defs>
</svg>
