<svg width="32" height="32" viewBox="0 0 32 32" fill="none" xmlns="http://www.w3.org/2000/svg">
<g clip-path="url(#clip0_1_658)">
<path d="M25 7.50008C24.6447 7.50087 24.2902 7.53148 23.94 7.59158C23.7185 5.64084 22.7867 3.83989 21.3223 2.53229C19.8578 1.22469 17.9633 0.501953 16 0.501953C14.0367 0.501953 12.1422 1.22469 10.6777 2.53229C9.21328 3.83989 8.28146 5.64084 8.06 7.59158C7.70985 7.53148 7.35527 7.50087 7 7.50008C5.27609 7.50008 3.62279 8.18489 2.40381 9.40388C1.18482 10.6229 0.5 12.2762 0.5 14.0001C0.5 15.724 1.18482 17.3773 2.40381 18.5963C3.62279 19.8153 5.27609 20.5001 7 20.5001H9.5V19.5001H7C6.21661 19.5034 5.44154 19.3394 4.72668 19.0189C4.01183 18.6984 3.37368 18.2289 2.85496 17.6419C2.33625 17.0548 1.94893 16.3637 1.71894 15.6148C1.48895 14.8659 1.42159 14.0766 1.52138 13.2995C1.62117 12.5225 1.88581 11.7758 2.29756 11.1093C2.70932 10.4428 3.2587 9.87204 3.90893 9.43509C4.55916 8.99815 5.29523 8.70515 6.06786 8.57571C6.8405 8.44628 7.63187 8.4834 8.389 8.68458C8.4613 8.70339 8.5369 8.70576 8.61024 8.69151C8.68357 8.67727 8.75278 8.64677 8.81279 8.60226C8.87279 8.55775 8.92205 8.50036 8.95696 8.43431C8.99187 8.36826 9.01153 8.29522 9.0145 8.22058C9.08288 6.41364 9.84877 4.7035 11.1513 3.4493C12.4539 2.1951 14.1918 1.49442 16 1.49442C17.8082 1.49442 19.5461 2.1951 20.8487 3.4493C22.1512 4.7035 22.9171 6.41364 22.9855 8.22058C22.9885 8.29522 23.0081 8.36826 23.043 8.43431C23.0779 8.50036 23.1272 8.55775 23.1872 8.60226C23.2472 8.64677 23.3164 8.67727 23.3898 8.69151C23.4631 8.70576 23.5387 8.70339 23.611 8.68458C24.3669 8.48652 25.1564 8.4519 25.9267 8.58302C26.6971 8.71413 27.4307 9.00797 28.0785 9.44495C28.7263 9.88192 29.2736 10.452 29.6837 11.1171C30.0939 11.7823 30.3575 12.5272 30.457 13.3023C30.5566 14.0774 30.4897 14.8648 30.261 15.612C30.0322 16.3592 29.6468 17.049 29.1304 17.6355C28.614 18.222 27.9785 18.6917 27.2663 19.0132C26.554 19.3347 25.7814 19.5007 25 19.5001H22.5V20.5001H25C26.7239 20.5001 28.3772 19.8153 29.5962 18.5963C30.8152 17.3773 31.5 15.724 31.5 14.0001C31.5 12.2762 30.8152 10.6229 29.5962 9.40388C28.3772 8.18489 26.7239 7.50008 25 7.50008Z" fill="#135CFD"/>
<path d="M16.0003 18.5C15.6469 18.4993 15.3047 18.6238 15.0342 18.8513C14.7637 19.0787 14.5825 19.3946 14.5226 19.7429C14.4627 20.0912 14.528 20.4495 14.707 20.7542C14.8859 21.059 15.167 21.2906 15.5003 21.408V22.5H16.5003V21.408C16.8337 21.2906 17.1147 21.059 17.2936 20.7542C17.4726 20.4495 17.5379 20.0912 17.478 19.7429C17.4181 19.3946 17.2369 19.0787 16.9664 18.8513C16.696 18.6238 16.3537 18.4993 16.0003 18.5ZM16.0003 20.5C15.9014 20.5 15.8048 20.4707 15.7225 20.4157C15.6403 20.3608 15.5762 20.2827 15.5384 20.1913C15.5005 20.1 15.4906 19.9994 15.5099 19.9025C15.5292 19.8055 15.5768 19.7164 15.6468 19.6464C15.7167 19.5765 15.8058 19.5289 15.9028 19.5096C15.9998 19.4903 16.1003 19.5002 16.1917 19.5381C16.283 19.5759 16.3611 19.64 16.4161 19.7222C16.471 19.8044 16.5003 19.9011 16.5003 20C16.5003 20.1326 16.4476 20.2598 16.3539 20.3536C16.2601 20.4473 16.1329 20.5 16.0003 20.5Z" fill="#135CFD"/>
<path d="M23 27.571V26C23 25.8674 22.9473 25.7402 22.8536 25.6464C22.7598 25.5527 22.6326 25.5 22.5 25.5H16.5V24.5H21C21.1326 24.5 21.2598 24.4473 21.3536 24.3536C21.4473 24.2598 21.5 24.1326 21.5 24V17C21.5 16.8674 21.4473 16.7402 21.3536 16.6464C21.2598 16.5527 21.1326 16.5 21 16.5H20.5V15C20.5 13.8065 20.0259 12.6619 19.182 11.818C18.3381 10.9741 17.1935 10.5 16 10.5C14.8065 10.5 13.6619 10.9741 12.818 11.818C11.9741 12.6619 11.5 13.8065 11.5 15V16.5H11C10.8674 16.5 10.7402 16.5527 10.6465 16.6464C10.5527 16.7402 10.5 16.8674 10.5 17V24C10.5 24.1326 10.5527 24.2598 10.6465 24.3536C10.7402 24.4473 10.8674 24.5 11 24.5H15.5V25.5H9.5C9.3674 25.5 9.24022 25.5527 9.14645 25.6464C9.05268 25.7402 9 25.8674 9 26V27.571C8.52868 27.6927 8.11791 27.9821 7.8447 28.385C7.5715 28.7879 7.45461 29.2766 7.51595 29.7595C7.57728 30.2424 7.81264 30.6864 8.17789 31.0082C8.54314 31.33 9.01322 31.5075 9.5 31.5075C9.98679 31.5075 10.4569 31.33 10.8221 31.0082C11.1874 30.6864 11.4227 30.2424 11.4841 29.7595C11.5454 29.2766 11.4285 28.7879 11.1553 28.385C10.8821 27.9821 10.4713 27.6927 10 27.571V26.5H15.5V27.571C15.0287 27.6927 14.6179 27.9821 14.3447 28.385C14.0715 28.7879 13.9546 29.2766 14.0159 29.7595C14.0773 30.2424 14.3126 30.6864 14.6779 31.0082C15.0431 31.33 15.5132 31.5075 16 31.5075C16.4868 31.5075 16.9569 31.33 17.3221 31.0082C17.6874 30.6864 17.9227 30.2424 17.9841 29.7595C18.0454 29.2766 17.9285 28.7879 17.6553 28.385C17.3821 27.9821 16.9713 27.6927 16.5 27.571V26.5H22V27.571C21.5287 27.6927 21.1179 27.9821 20.8447 28.385C20.5715 28.7879 20.4546 29.2766 20.5159 29.7595C20.5773 30.2424 20.8126 30.6864 21.1779 31.0082C21.5431 31.33 22.0132 31.5075 22.5 31.5075C22.9868 31.5075 23.4569 31.33 23.8221 31.0082C24.1874 30.6864 24.4227 30.2424 24.4841 29.7595C24.5454 29.2766 24.4285 28.7879 24.1553 28.385C23.8821 27.9821 23.4713 27.6927 23 27.571ZM12.5 15C12.5 14.0717 12.8688 13.1815 13.5251 12.5251C14.1815 11.8687 15.0717 11.5 16 11.5C16.9283 11.5 17.8185 11.8687 18.4749 12.5251C19.1313 13.1815 19.5 14.0717 19.5 15V16.5H18.5V15C18.5 14.337 18.2366 13.7011 17.7678 13.2322C17.2989 12.7634 16.663 12.5 16 12.5C15.337 12.5 14.7011 12.7634 14.2322 13.2322C13.7634 13.7011 13.5 14.337 13.5 15V16.5H12.5V15ZM17.5 16.5H14.5V15C14.5 14.6022 14.658 14.2206 14.9393 13.9393C15.2206 13.658 15.6022 13.5 16 13.5C16.3978 13.5 16.7794 13.658 17.0607 13.9393C17.342 14.2206 17.5 14.6022 17.5 15V16.5ZM11.5 17.5H20.5V23.5H11.5V17.5ZM10.5 29.5C10.5 29.6978 10.4414 29.8911 10.3315 30.0556C10.2216 30.22 10.0654 30.3482 9.88269 30.4239C9.69996 30.4996 9.4989 30.5194 9.30491 30.4808C9.11093 30.4422 8.93275 30.347 8.7929 30.2071C8.65305 30.0673 8.5578 29.8891 8.51922 29.6951C8.48063 29.5011 8.50044 29.3 8.57613 29.1173C8.65181 28.9346 8.77999 28.7784 8.94443 28.6685C9.10888 28.5586 9.30222 28.5 9.5 28.5C9.76522 28.5 10.0196 28.6054 10.2071 28.7929C10.3946 28.9804 10.5 29.2348 10.5 29.5ZM17 29.5C17 29.6978 16.9414 29.8911 16.8315 30.0556C16.7216 30.22 16.5654 30.3482 16.3827 30.4239C16.2 30.4996 15.9989 30.5194 15.8049 30.4808C15.6109 30.4422 15.4328 30.347 15.2929 30.2071C15.153 30.0673 15.0578 29.8891 15.0192 29.6951C14.9806 29.5011 15.0004 29.3 15.0761 29.1173C15.1518 28.9346 15.28 28.7784 15.4444 28.6685C15.6089 28.5586 15.8022 28.5 16 28.5C16.2652 28.5 16.5196 28.6054 16.7071 28.7929C16.8946 28.9804 17 29.2348 17 29.5ZM22.5 30.5C22.3022 30.5 22.1089 30.4414 21.9444 30.3315C21.78 30.2216 21.6518 30.0654 21.5761 29.8827C21.5004 29.7 21.4806 29.4989 21.5192 29.3049C21.5578 29.1109 21.653 28.9327 21.7929 28.7929C21.9327 28.653 22.1109 28.5578 22.3049 28.5192C22.4989 28.4806 22.7 28.5004 22.8827 28.5761C23.0654 28.6518 23.2216 28.78 23.3315 28.9444C23.4414 29.1089 23.5 29.3022 23.5 29.5C23.5 29.7652 23.3946 30.0196 23.2071 30.2071C23.0196 30.3946 22.7652 30.5 22.5 30.5Z" fill="#135CFD"/>
<path d="M21 8.5H22C21.9983 6.90923 21.3656 5.38411 20.2407 4.25926C19.1159 3.13441 17.5908 2.50172 16 2.5V3.5C17.3256 3.50146 18.5966 4.02871 19.5339 4.96607C20.4713 5.90344 20.9985 7.17436 21 8.5Z" fill="#135CFD"/>
</g>
<defs>
<clipPath id="clip0_1_658">
<rect width="32" height="32" fill="white"/>
</clipPath>
</defs>
</svg>
