<svg width="22" height="22" viewBox="0 0 22 22" fill="none" xmlns="http://www.w3.org/2000/svg">
<path fill-rule="evenodd" clip-rule="evenodd" d="M7.5057 4.61418C7.5057 6.22336 8.8141 7.53305 10.422 7.53305C12.0303 7.53305 13.3387 6.22379 13.3387 4.61418C13.3387 3.00457 12.0303 1.69531 10.422 1.69531C8.8141 1.69574 7.5057 3.005 7.5057 4.61418ZM17.6966 18.5421C17.5909 18.249 17.3112 18.0389 16.982 18.0389H16.7337C16.7152 17.9212 16.6172 17.8292 16.4948 17.8219L9.20684 17.3845V16.63C9.20684 16.4877 9.09125 16.3721 8.94902 16.3721H6.94668C6.80445 16.3721 6.68887 16.4877 6.68887 16.63V16.9535C6.29184 16.6557 5.80328 16.4873 5.29883 16.4873C4.02352 16.4873 2.98582 17.5254 2.98582 18.8016C2.98582 20.0778 4.02352 21.1163 5.29883 21.1163C5.80328 21.1163 6.29184 20.9479 6.68887 20.6501V20.9737C6.68887 21.1163 6.80445 21.2315 6.94668 21.2315H8.94902C9.09125 21.2315 9.20684 21.1159 9.20684 20.9737V20.2226L16.4918 19.8702C16.6293 19.8638 16.7371 19.7504 16.7371 19.6129V19.5652H16.982C17.3125 19.5652 17.5939 19.3529 17.6983 19.0577H20.0096C20.8746 19.0577 21.5784 18.353 21.5784 17.4868C21.5784 16.6205 20.8746 15.9158 20.0096 15.9158H19.9043C19.2637 15.9158 18.7446 15.395 18.7446 14.7552V14.5778C18.7446 13.938 19.2641 13.4172 19.9043 13.4172H20.0221C20.8802 13.4172 21.5784 12.7181 21.5784 11.8591V9.83488C21.5784 9.69223 21.4624 9.57707 21.3206 9.57707C21.1784 9.57707 21.0628 9.69266 21.0628 9.83488V11.8596C21.0628 12.4341 20.5961 12.902 20.0221 12.902H19.9043C18.9797 12.902 18.2281 13.6539 18.2281 14.5782V14.7557C18.2281 15.6799 18.9797 16.4314 19.9043 16.4314H20.0096C20.5905 16.4314 21.0623 16.905 21.0623 17.4868C21.0623 18.0686 20.5901 18.5421 20.0096 18.5421H17.6966ZM17.227 18.7999V18.805C17.227 18.94 17.117 19.05 16.982 19.05H16.7371V18.555H16.982C17.117 18.5545 17.227 18.6645 17.227 18.7999ZM8.69121 16.8882V20.7163H7.20449V16.8882H8.69121ZM5.04102 17.0223V20.5822C4.17176 20.4568 3.50145 19.7065 3.50145 18.802C3.50145 17.898 4.17176 17.1477 5.04102 17.0223ZM16.0904 8.06285C16.1158 8.04566 16.139 8.04437 16.1656 8.05855C16.1927 8.07273 16.2047 8.09293 16.2047 8.12344V14.6912C16.2047 14.7226 16.1905 14.7445 16.1622 14.7574C16.1338 14.7703 16.1085 14.7668 16.0844 14.7466L12.7775 11.9253V10.3346L16.0904 8.06285ZM10.7043 8.0491C11.5632 8.0491 12.2619 8.74777 12.2619 9.60629V13.2084C12.2619 14.0669 11.5632 14.7655 10.7043 14.7655H3.05414C2.1952 14.7655 1.49695 14.0669 1.49695 13.2084V9.60629C1.49695 8.74777 2.1952 8.0491 3.05414 8.0491H10.7043ZM3.80266 7.53305C5.1218 7.53305 6.19516 6.45883 6.19516 5.13883C6.19516 3.81883 5.1218 2.74461 3.80266 2.74461C2.48352 2.74461 1.41016 3.8184 1.41016 5.13883C1.41016 6.45883 2.48352 7.53305 3.80266 7.53305Z" fill="#B7BFD4"/>
</svg>
