<svg width="22" height="22" viewBox="0 0 22 22" fill="none" xmlns="http://www.w3.org/2000/svg">
<path d="M15.0267 2.49023C14.6486 2.49023 14.342 2.79677 14.342 3.1749C14.342 3.55302 14.6486 3.85956 15.0267 3.85956C16.0959 3.85956 16.9658 4.72938 16.9658 5.79857C16.9658 6.1767 17.2723 6.48323 17.6504 6.48323C18.0285 6.48323 18.3351 6.1767 18.3351 5.79857C18.335 3.97433 16.8509 2.49023 15.0267 2.49023Z" fill="#B7BFD4"/>
<path d="M15.0267 0C14.6486 0 14.342 0.306539 14.342 0.684664C14.342 1.06279 14.6486 1.36933 15.0267 1.36933C17.469 1.36933 19.4559 3.35625 19.4559 5.7985C19.4559 6.17663 19.7624 6.48317 20.1405 6.48317C20.5187 6.48317 20.8252 6.17663 20.8252 5.7985C20.8252 2.60116 18.224 0 15.0267 0Z" fill="#B7BFD4"/>
<path d="M8.1715 14.7217C9.28334 14.7217 10.1847 13.8203 10.1847 12.7085C10.1847 11.5966 9.28334 10.6953 8.1715 10.6953C7.05965 10.6953 6.15833 11.5966 6.15833 12.7085C6.15833 13.8203 7.05965 14.7217 8.1715 14.7217Z" fill="#B7BFD4"/>
<path d="M13.7359 8.06065L14.8361 6.96048C15.1035 6.69308 15.1035 6.25962 14.8361 5.99226C14.5687 5.72487 14.1352 5.72487 13.8679 5.99226L12.7677 7.09244L8.50317 2.82792C8.30616 2.6309 7.98295 2.64272 7.8011 2.85383C6.13005 4.79395 5.69185 7.48182 6.42928 9.80991C6.97099 9.483 7.6111 9.30335 8.29396 9.32758C10.0394 9.3895 11.4657 10.7972 11.5501 12.5417C11.5827 13.2151 11.416 13.8479 11.1055 14.3879C13.3983 15.0644 16.0115 14.6046 17.9131 12.9646C18.1238 12.7829 18.1351 12.4599 17.9384 12.2631L13.7359 8.06065Z" fill="#B7BFD4"/>
<path d="M10.6572 15C10.0387 15.6704 9.15359 16.0912 8.1718 16.0912C7.19774 16.0912 6.31907 15.6768 5.70131 15.0156L4.09277 18.9927H12.2319L10.6572 15Z" fill="#B7BFD4"/>
<path d="M14.3496 20.3613H1.99395C1.54235 20.3613 1.17493 20.7288 1.17493 21.1804C1.17493 21.632 1.54235 21.9994 1.99395 21.9994H14.3496C14.8012 21.9994 15.1686 21.632 15.1686 21.1804C15.1686 20.7288 14.8012 20.3613 14.3496 20.3613Z" fill="#B7BFD4"/>
</svg>
