<svg width="22" height="22" viewBox="0 0 22 22" fill="none" xmlns="http://www.w3.org/2000/svg">
<path d="M17.7969 9.30683C17.7388 9.1953 17.6513 9.10185 17.5437 9.03663C17.4362 8.97142 17.3129 8.93694 17.1871 8.93695H12.7184V2.06195C12.7183 1.91581 12.6716 1.7735 12.5851 1.65568C12.4986 1.53787 12.3768 1.45068 12.2374 1.40676C12.098 1.36285 11.9483 1.36451 11.8099 1.41149C11.6715 1.45846 11.5517 1.54832 11.4678 1.66802L4.24906 11.9805C4.17703 12.0835 4.13463 12.2043 4.12645 12.3298C4.11828 12.4552 4.14465 12.5805 4.2027 12.692C4.26075 12.8034 4.34826 12.8969 4.4557 12.9621C4.56315 13.0274 4.68642 13.0619 4.81212 13.062H9.28087V19.937C9.28098 20.0831 9.32767 20.2254 9.41415 20.3432C9.50063 20.461 9.62241 20.5482 9.76181 20.5921C9.9012 20.6361 10.051 20.6344 10.1894 20.5874C10.3278 20.5404 10.4476 20.4506 10.5314 20.3309L17.7502 10.0184C17.8223 9.9154 17.8648 9.7946 17.873 9.66915C17.8813 9.54369 17.8549 9.41837 17.7969 9.30683Z" fill="#B7BFD4"/>
</svg>
