<svg width="22" height="22" viewBox="0 0 22 22" fill="none" xmlns="http://www.w3.org/2000/svg">
<path d="M11 1.375C9.09636 1.375 7.23546 1.9395 5.65264 2.99711C4.06982 4.05471 2.83616 5.55793 2.10766 7.31667C1.37917 9.07541 1.18856 11.0107 1.55995 12.8777C1.93133 14.7448 2.84802 16.4598 4.1941 17.8059C5.54018 19.152 7.25519 20.0687 9.12226 20.4401C10.9893 20.8114 12.9246 20.6208 14.6833 19.8923C16.4421 19.1638 17.9453 17.9302 19.0029 16.3474C20.0605 14.7645 20.625 12.9036 20.625 11C20.6221 8.44817 19.6072 6.00167 17.8028 4.19725C15.9983 2.39283 13.5518 1.37786 11 1.375ZM11 4.125C12.4628 4.1226 13.888 4.58848 15.0669 5.45443C16.2458 6.32039 17.1166 7.54096 17.5519 8.9375H15.2969L14.7813 8.25C14.6207 8.03702 14.413 7.86411 14.1745 7.74483C13.9359 7.62555 13.673 7.56314 13.4063 7.5625H8.59375C8.32703 7.5631 8.06408 7.62549 7.82552 7.74477C7.58695 7.86405 7.37927 8.03698 7.21875 8.25L6.70313 8.9375H4.44813C4.88343 7.54099 5.75426 6.32046 6.93318 5.45451C8.1121 4.58857 9.53723 4.12267 11 4.125ZM9.28125 17.6563C8.03557 17.3339 6.9055 16.6681 6.01982 15.7347C5.13414 14.8013 4.52848 13.6379 4.27185 12.377C5.6129 12.4168 6.8858 12.9771 7.82086 13.9392C8.75593 14.9013 9.27972 16.1896 9.28125 17.5312V17.6563ZM11 13.75C10.5921 13.75 10.1933 13.629 9.85414 13.4024C9.51496 13.1758 9.25061 12.8537 9.0945 12.4768C8.9384 12.0999 8.89755 11.6852 8.97713 11.2851C9.05672 10.885 9.25315 10.5175 9.5416 10.2291C9.83004 9.94065 10.1975 9.74421 10.5976 9.66463C10.9977 9.58505 11.4124 9.62589 11.7893 9.782C12.1662 9.9381 12.4883 10.2025 12.7149 10.5416C12.9415 10.8808 13.0625 11.2796 13.0625 11.6875C13.0619 12.2343 12.8444 12.7586 12.4577 13.1452C12.0711 13.5319 11.5468 13.7494 11 13.75ZM12.7188 17.6563V17.5312C12.7204 16.1896 13.2442 14.9013 14.1793 13.9392C15.1144 12.9771 16.3872 12.4168 17.7283 12.377C17.4717 13.6379 16.8661 14.8014 15.9803 15.7348C15.0946 16.6682 13.9645 17.334 12.7188 17.6563Z" fill="#B7BFD4"/>
<path d="M11 13.0625C11.7594 13.0625 12.375 12.4469 12.375 11.6875C12.375 10.9281 11.7594 10.3125 11 10.3125C10.2406 10.3125 9.625 10.9281 9.625 11.6875C9.625 12.4469 10.2406 13.0625 11 13.0625Z" fill="#B7BFD4"/>
</svg>
