<svg width="22" height="22" viewBox="0 0 22 22" fill="none" xmlns="http://www.w3.org/2000/svg">
<g clip-path="url(#clip0_1_309)">
<path d="M12.9248 4.2793H14.2139V5.56479H12.9248V4.2793Z" fill="#B7BFD4"/>
<path d="M18.3558 11.6438C18.6193 12.3641 19.3112 12.8795 20.1211 12.8795C21.1573 12.8795 22.0003 12.036 22.0003 10.9993C22.0003 9.96257 21.1573 9.11914 20.1211 9.11914C19.3112 9.11914 18.6193 9.63455 18.3559 10.3547H16.4355V11.6438H18.3558Z" fill="#B7BFD4"/>
<path d="M16.4353 6.47307L19.3253 3.58299C19.5671 3.69652 19.8366 3.76032 20.1209 3.76032C21.157 3.76032 22 2.91689 22 1.88018C22 0.843477 21.1571 0 20.1209 0C19.0848 0 18.2418 0.843434 18.2418 1.88014C18.2418 2.16193 18.3045 2.4292 18.416 2.66935L15.5206 5.56475H16.4353V6.47307H16.4353Z" fill="#B7BFD4"/>
<path d="M16.4355 7.78711H17.721V9.07617H16.4355V7.78711Z" fill="#B7BFD4"/>
<path d="M6.47625 5.56475L3.58303 2.67158C3.69518 2.43087 3.75822 2.16279 3.75822 1.88018C3.75822 0.843434 2.91526 0 1.87911 0C0.842961 0 0 0.843434 0 1.88014C0 2.91685 0.842961 3.76028 1.87911 3.76028C2.16249 3.76028 2.43126 3.69682 2.67244 3.58394L5.56475 6.47621V5.56475H6.47625Z" fill="#B7BFD4"/>
<path d="M15.5234 16.4349L18.4139 19.3253C18.3035 19.5644 18.2415 19.8303 18.2415 20.1105C18.2415 21.1472 19.0844 21.9907 20.1205 21.9907C21.1567 21.9907 21.9996 21.1473 21.9996 20.1105C21.9996 19.0738 21.1567 18.2304 20.1205 18.2304C19.8348 18.2304 19.5638 18.2948 19.321 18.4095L16.4349 15.5234V16.4349H15.5234Z" fill="#B7BFD4"/>
<path d="M5.56475 15.5215L2.67644 18.4098C2.43422 18.2957 2.16408 18.2316 1.87911 18.2316C0.842961 18.2316 0 19.075 0 20.1117C0 21.1485 0.842961 21.9919 1.87911 21.9919C2.91521 21.9919 3.75818 21.1485 3.75818 20.1117C3.75818 19.8307 3.69579 19.564 3.5848 19.3243L6.47303 16.4362H5.56471V15.5215H5.56475Z" fill="#B7BFD4"/>
<path d="M6.85352 6.85352H15.1459V15.1458H6.85352V6.85352Z" fill="#B7BFD4"/>
<path d="M11.6448 3.64444C12.3651 3.38095 12.8805 2.68907 12.8805 1.87911C12.8805 0.842961 12.0371 0 11.0003 0C9.96355 0 9.12012 0.842961 9.12012 1.87911C9.12012 2.68907 9.63553 3.38095 10.3558 3.64444V5.56475H11.6448V3.64444Z" fill="#B7BFD4"/>
<path d="M7.78613 16.4355H9.0752V17.721H7.78613V16.4355Z" fill="#B7BFD4"/>
<path d="M10.3558 18.3559C9.63553 18.6193 9.12012 19.3112 9.12012 20.1212C9.12012 21.1573 9.96355 22.0003 11.0003 22.0003C12.0371 22.0003 12.8805 21.1573 12.8805 20.1212C12.8805 19.3112 12.3651 18.6193 11.6448 18.3559V16.4355H10.3558V18.3559Z" fill="#B7BFD4"/>
<path d="M16.4355 12.9238H17.721V14.2129H16.4355V12.9238Z" fill="#B7BFD4"/>
<path d="M7.78613 4.2793H9.0752V5.56479H7.78613V4.2793Z" fill="#B7BFD4"/>
<path d="M12.9248 16.4355H14.2139V17.721H12.9248V16.4355Z" fill="#B7BFD4"/>
<path d="M4.2793 7.78711H5.56475V9.07617H4.2793V7.78711Z" fill="#B7BFD4"/>
<path d="M4.2793 12.9238H5.56475V14.2129H4.2793V12.9238Z" fill="#B7BFD4"/>
<path d="M3.64444 10.3547C3.38095 9.63451 2.68907 9.11914 1.87915 9.11914C0.842961 9.11914 0 9.96257 0 10.9993C0 12.036 0.842961 12.8795 1.87911 12.8795C2.68903 12.8795 3.38091 12.3641 3.64439 11.6438H5.56471V10.3547H3.64444Z" fill="#B7BFD4"/>
</g>
<defs>
<clipPath id="clip0_1_309">
<rect width="22" height="22" fill="white"/>
</clipPath>
</defs>
</svg>
