<svg width="24" height="24" viewBox="0 0 24 24" fill="none" xmlns="http://www.w3.org/2000/svg">
<g clip-path="url(#clip0_1_461)">
<path d="M20.4853 3.51469C18.2188 1.24823 15.2053 0 12 0C8.79469 0 5.78123 1.24823 3.51469 3.51469C1.24823 5.78123 0 8.79469 0 12C0 15.2053 1.24823 18.2188 3.51469 20.4853C5.78123 22.7518 8.79469 24 12 24C15.2053 24 18.2188 22.7518 20.4853 20.4853C22.7518 18.2188 24 15.2053 24 12C24 8.79469 22.7518 5.78123 20.4853 3.51469ZM11.2969 1.52587V22.4742C10.3317 22.1488 9.39553 21.1685 8.65167 19.6747C7.63673 17.6364 7.0778 14.9108 7.0778 12C7.0778 9.08916 7.63673 6.36356 8.65172 4.3253C9.39553 2.83153 10.3317 1.85123 11.2969 1.52587ZM12.7031 22.4741V1.52587C13.6683 1.85128 14.6045 2.83158 15.3483 4.32534C16.3633 6.36356 16.9222 9.08916 16.9222 12C16.9222 14.9109 16.3633 17.6365 15.3483 19.6747C14.6045 21.1685 13.6683 22.1488 12.7031 22.4741ZM1.40625 12C1.40625 7.40784 4.34353 3.48938 8.43778 2.02312C6.75722 4.15884 5.67155 7.7947 5.67155 12C5.67155 16.2053 6.75727 19.8412 8.43778 21.9769C4.34353 20.5106 1.40625 16.5922 1.40625 12ZM15.5622 21.9769C17.2428 19.8412 18.3285 16.2053 18.3285 12C18.3285 7.7947 17.2428 4.15884 15.5622 2.02312C19.6565 3.48938 22.5938 7.40784 22.5938 12C22.5938 16.5922 19.6565 20.5106 15.5622 21.9769Z" fill="#0D2665"/>
</g>
<defs>
<clipPath id="clip0_1_461">
<rect width="24" height="24" fill="white"/>
</clipPath>
</defs>
</svg>
