<svg width="24" height="24" viewBox="0 0 24 24" fill="none" xmlns="http://www.w3.org/2000/svg">
<g clip-path="url(#clip0_1_464)">
<path d="M4.50023 2.99925C4.37223 2.99925 4.24423 2.95025 4.14623 2.85325L2.50023 1.20625L0.854227 2.85325C0.659227 3.04825 0.342227 3.04825 0.147227 2.85325C-0.0477734 2.65825 -0.0477734 2.34125 0.147227 2.14625L2.14723 0.14625C2.34223 -0.04875 2.65923 -0.04875 2.85423 0.14625L4.85423 2.14625C5.04923 2.34125 5.04923 2.65825 4.85423 2.85325C4.75623 2.95025 4.62823 2.99925 4.50023 2.99925Z" fill="#0D2665"/>
<path d="M21.5003 24.0002C21.3723 24.0002 21.2442 23.9512 21.1462 23.8542C20.9513 23.6592 20.9513 23.3422 21.1462 23.1472L22.7922 21.5012L21.1462 19.8552C20.9513 19.6602 20.9513 19.3432 21.1462 19.1482C21.3413 18.9532 21.6583 18.9532 21.8533 19.1482L23.8533 21.1482C24.0483 21.3432 24.0483 21.6602 23.8533 21.8552L21.8533 23.8552C21.7563 23.9512 21.6283 24.0002 21.5003 24.0002Z" fill="#0D2665"/>
<path d="M2.5 24C2.224 24 2 23.776 2 23.5V0.75C2 0.474 2.224 0.25 2.5 0.25C2.776 0.25 3 0.474 3 0.75V23.5C3 23.776 2.776 24 2.5 24Z" fill="#0D2665"/>
<path d="M23.25 22H0.5C0.224 22 0 21.776 0 21.5C0 21.224 0.224 21 0.5 21H23.25C23.526 21 23.75 21.224 23.75 21.5C23.75 21.776 23.526 22 23.25 22Z" fill="#0D2665"/>
<path d="M13 10C12.939 10 12.878 9.989 12.82 9.967L6.32 7.467C6.127 7.393 6 7.207 6 7C6 6.793 6.127 6.607 6.32 6.533L12.82 4.033C12.935 3.989 13.064 3.989 13.179 4.033L19.679 6.533C19.873 6.607 20 6.793 20 7C20 7.207 19.873 7.393 19.68 7.467L13.18 9.967C13.122 9.989 13.061 10 13 10ZM7.893 7L13 8.964L18.107 7L13 5.036L7.893 7Z" fill="#0D2665"/>
<path d="M13 18C12.939 18 12.878 17.989 12.82 17.967L6.32 15.467C6.127 15.393 6 15.207 6 15V7C6 6.724 6.224 6.5 6.5 6.5C6.776 6.5 7 6.724 7 7V14.657L13 16.965L19 14.657V7C19 6.724 19.224 6.5 19.5 6.5C19.776 6.5 20 6.724 20 7V15C20 15.207 19.873 15.393 19.68 15.467L13.18 17.967C13.122 17.989 13.061 18 13 18Z" fill="#0D2665"/>
<path d="M13 18C12.724 18 12.5 17.776 12.5 17.5V9.5C12.5 9.224 12.724 9 13 9C13.276 9 13.5 9.224 13.5 9.5V17.5C13.5 17.776 13.276 18 13 18Z" fill="#0D2665"/>
</g>
<defs>
<clipPath id="clip0_1_464">
<rect width="24" height="24" fill="white"/>
</clipPath>
</defs>
</svg>
