<svg width="24" height="24" viewBox="0 0 24 24" fill="none" xmlns="http://www.w3.org/2000/svg">
<g clip-path="url(#clip0_1_472)">
<path d="M20.4756 3.52444C18.2029 1.25175 15.193 9.375e-05 12.0003 0C12.0002 0 12.0001 0 12 0C8.8072 0 5.79717 1.25166 3.52444 3.52444C1.25166 5.79717 0 8.8072 0 12C0 15.1928 1.25166 18.2028 3.52444 20.4756C5.79717 22.7483 8.8072 24 12 24C15.1928 24 18.2028 22.7483 20.4756 20.4756C22.7483 18.2028 24 15.1928 24 12C24 8.8072 22.7483 5.79717 20.4756 3.52444ZM4.5188 4.5188C6.35213 2.68547 8.7277 1.60448 11.2721 1.431C10.9134 6.6938 6.6938 10.9134 1.43095 11.2722C1.60448 8.7277 2.68547 6.35213 4.5188 4.5188ZM1.431 12.7279C6.6938 13.0866 10.9134 17.3062 11.2721 22.569C6.00933 22.2103 1.78973 17.9907 1.431 12.7279ZM9.17869 14.8213C7.90284 13.5455 6.39464 12.5915 4.75219 12C6.39459 11.4085 7.90284 10.4545 9.17869 9.17869C10.4545 7.90284 11.4085 6.39459 12 4.75219C12.5915 6.39459 13.5455 7.90284 14.8213 9.17869C16.0972 10.4545 17.6054 11.4085 19.2478 12C17.6054 12.5915 16.0972 13.5455 14.8213 14.8213C13.5455 16.0972 12.5915 17.6054 12 19.2478C11.4085 17.6054 10.4545 16.0972 9.17869 14.8213ZM12.7278 22.569C12.9014 20.0245 13.9823 17.649 15.8157 15.8157C17.649 13.9823 20.0246 12.9014 22.569 12.7279C22.2103 17.9907 17.9907 22.2103 12.7278 22.569ZM12.7279 1.431C17.9907 1.78973 22.2103 6.00938 22.569 11.2722C17.3062 10.9134 13.0866 6.6938 12.7279 1.431Z" fill="#0D2665"/>
<path d="M12 9.89062C10.8369 9.89062 9.89062 10.8369 9.89062 12C9.89062 13.1631 10.8369 14.1094 12 14.1094C13.1631 14.1094 14.1094 13.1631 14.1094 12C14.1094 10.8369 13.1631 9.89062 12 9.89062ZM12 12.7031C11.6123 12.7031 11.2969 12.3877 11.2969 12C11.2969 11.6123 11.6123 11.2969 12 11.2969C12.3877 11.2969 12.7031 11.6123 12.7031 12C12.7031 12.3877 12.3877 12.7031 12 12.7031Z" fill="#0D2665"/>
</g>
<defs>
<clipPath id="clip0_1_472">
<rect width="24" height="24" fill="white"/>
</clipPath>
</defs>
</svg>
