<svg width="129" height="36" viewBox="0 0 129 36" fill="none" xmlns="http://www.w3.org/2000/svg">
<g opacity="0.6">
<path opacity="0.54" d="M38.4394 27.6216H36.0295V9.01079H46.9745V11.2973H38.4394V17.4075H46.1376V19.6412H38.4394V27.6216ZM51.5058 11.6892C50.9315 12.2619 50.0294 12.3519 49.3513 11.9041C48.6736 11.4563 48.4089 10.5955 48.7197 9.84838C49.03 9.10126 49.8292 8.67605 50.628 8.83291C51.4268 8.98976 52.0026 9.68496 52.003 10.4931C52.0109 10.9433 51.83 11.3764 51.504 11.6892H51.5058ZM51.5058 27.6216H49.096V14.8854H51.5058V27.6216ZM56.7943 27.6216H54.3845V14.8854H56.6877V16.9648H56.7921C57.0706 16.232 57.6047 15.623 58.298 15.2489C58.9597 14.8272 59.7252 14.5933 60.5113 14.5727C61.1288 14.5553 61.743 14.6616 62.3177 14.8854L61.4014 17.1191C60.9881 16.9826 60.5537 16.9207 60.1186 16.9364C59.2349 16.9408 58.3941 17.3137 57.8009 17.9639C57.1283 18.6489 56.7921 19.5457 56.7921 20.6545L56.7943 27.6216ZM68.9217 28.0277C66.9836 28.0277 65.4085 27.3867 64.196 26.1047C62.9834 24.8227 62.3765 23.2056 62.375 21.2535C62.3395 19.4959 62.9704 17.7891 64.1427 16.4714C65.2656 15.1597 66.9263 14.4235 68.6599 14.4691C70.5624 14.4691 72.0857 15.0844 73.23 16.315C74.3744 17.5456 74.9458 19.1917 74.9444 21.2535L74.9179 21.6962H64.7808C64.8504 22.9782 65.283 23.9935 66.0782 24.7421C66.8215 25.4666 67.8245 25.8683 68.8666 25.859C70.5943 25.859 71.7641 25.1314 72.375 23.6761L74.523 24.5594C74.0876 25.5664 73.3696 26.4278 72.4548 27.0408C71.4932 27.6987 70.3155 28.0277 68.9217 28.0277ZM72.379 19.7021C72.3272 18.9738 71.991 18.2807 71.3706 17.6227C70.7499 16.9648 69.8274 16.6426 68.6026 16.6561C67.753 16.6414 66.9278 16.9378 66.2845 17.4887C65.6108 18.0748 65.1391 18.8561 64.9364 19.7224L72.379 19.7021ZM83.6514 28.0277C82.7395 28.0457 81.8377 27.8362 81.0287 27.4185C80.318 27.0628 79.7169 26.5242 79.2875 25.859H79.1835V27.6216H76.8777V9.01079H79.2875V14.8854L79.1835 16.6521H79.2875C79.7169 15.9869 80.318 15.4482 81.0287 15.0925C81.8366 14.67 82.7384 14.4557 83.6514 14.4691C85.3099 14.4691 86.7418 15.1189 87.9474 16.4185C89.1531 17.7182 89.7553 19.3298 89.7539 21.2535C89.7539 23.1772 89.1516 24.7888 87.9474 26.0884C86.7432 27.3881 85.311 28.0345 83.6514 28.0277ZM83.2587 25.8448C84.3563 25.8534 85.4053 25.3943 86.1392 24.5838C86.9423 23.7431 87.3441 22.6296 87.3441 21.2433C87.3441 19.8571 86.9423 18.7436 86.1392 17.9029C85.3969 17.1021 84.3512 16.6454 83.2551 16.6431C82.1589 16.6408 81.1114 17.0931 80.3659 17.8908C79.5722 18.722 79.1751 19.8395 79.1751 21.2433C79.1751 22.6472 79.5762 23.7681 80.3779 24.6061C81.1165 25.4136 82.168 25.8682 83.2667 25.8549L83.2587 25.8448ZM95.8894 28.0277C94.5253 28.0277 93.3864 27.6378 92.4726 26.8581C91.5589 26.0783 91.1006 25.0474 91.098 23.7654C91.098 22.3792 91.6394 21.2921 92.7224 20.5042C93.8051 19.7163 95.1406 19.3224 96.728 19.3224C98.1422 19.3224 99.3017 19.5823 100.206 20.1021V19.7387C100.24 18.8826 99.8841 18.0567 99.2361 17.4907C98.5762 16.9267 97.7273 16.6289 96.8568 16.6561C96.1907 16.6476 95.5347 16.8181 94.9582 17.1496C94.4183 17.4464 94.0042 17.9266 93.7921 18.502L91.593 17.5659C91.8903 16.801 92.4755 16.0916 93.3483 15.4378C94.2211 14.7839 95.3737 14.459 96.8056 14.4631C98.4424 14.4631 99.8061 14.9369 100.897 15.8845C101.988 16.8321 102.53 18.1751 102.522 19.9133V27.6216H100.21V25.8549H100.106C99.144 27.3034 97.7386 28.0277 95.8894 28.0277ZM96.282 25.8448C97.2948 25.8413 98.2669 25.4491 98.9946 24.7503C99.7706 24.1011 100.219 23.1461 100.222 22.1389C99.5403 21.5838 98.5174 21.3063 97.1534 21.3063C95.9833 21.3063 95.1014 21.5574 94.5082 22.0597C93.9545 22.4821 93.6268 23.1332 93.6184 23.8263C93.6072 24.4295 93.9186 24.9935 94.4368 25.3087C94.9818 25.6724 95.6254 25.8629 96.282 25.8549V25.8448ZM109.61 28.0277C108.178 28.0277 106.996 27.6812 106.063 26.988C105.155 26.3226 104.448 25.4239 104.017 24.3888L106.165 23.5055C106.847 25.1002 108.006 25.8976 109.643 25.8976C110.293 25.924 110.936 25.7518 111.484 25.4041C111.936 25.1254 112.209 24.6328 112.204 24.1045C112.204 23.2733 111.619 22.7102 110.449 22.415L107.857 21.7916C107.004 21.5676 106.21 21.1646 105.527 20.6098C104.8 20.0473 104.391 19.1722 104.426 18.2583C104.426 17.132 104.928 16.2182 105.932 15.517C106.982 14.8015 108.233 14.4334 109.506 14.4651C110.569 14.4482 111.617 14.7139 112.542 15.2347C113.415 15.7266 114.09 16.5028 114.453 17.4318L112.36 18.2807C111.889 17.1543 110.911 16.5912 109.426 16.5912C108.794 16.5703 108.169 16.7235 107.62 17.0339C107.17 17.2653 106.887 17.7267 106.887 18.2299C106.887 18.9582 107.455 19.4523 108.589 19.7123L111.128 20.3113C112.333 20.582 113.223 21.0558 113.8 21.7327C114.359 22.365 114.666 23.1781 114.663 24.0193C114.674 25.1406 114.15 26.2011 113.25 26.8784C112.307 27.6446 111.094 28.0277 109.61 28.0277ZM122.572 28.0277C120.634 28.0277 119.059 27.3867 117.847 26.1047C116.634 24.8227 116.027 23.2022 116.026 21.2433C115.99 19.4857 116.621 17.7789 117.793 16.4612C118.92 15.1528 120.583 14.4206 122.317 14.4691C124.226 14.4691 125.749 15.0844 126.887 16.315C128.024 17.5456 128.596 19.1917 128.601 21.2535L128.575 21.6962H118.43C118.499 22.9782 118.932 23.9935 119.727 24.7421C120.472 25.4666 121.478 25.867 122.521 25.8549C124.249 25.8549 125.419 25.1273 126.03 23.672L128.178 24.5553C127.743 25.5624 127.025 26.4238 126.11 27.0368C125.148 27.6974 123.969 28.0277 122.572 28.0277ZM126.03 19.7021C125.978 18.9738 125.642 18.2807 125.021 17.6227C124.401 16.9648 123.479 16.6426 122.257 16.6561C121.408 16.6416 120.583 16.9379 119.94 17.4887C119.266 18.0748 118.794 18.8561 118.591 19.7224L126.03 19.7021Z" fill="#030F2B"/>
<path d="M22.7933 8.04481C22.7421 7.74317 22.5268 7.49531 22.2353 7.4023C21.9438 7.3093 21.6248 7.38668 21.4083 7.60289L17.1589 11.8624L13.818 5.50179C13.6765 5.23285 13.3976 5.06447 13.0937 5.06447C12.7898 5.06447 12.511 5.23285 12.3695 5.50179L10.5425 8.97979L5.95969 0.432154C5.79348 0.121691 5.44731 -0.0476296 5.10019 0.0117685C4.75308 0.0711664 4.48288 0.345962 4.42936 0.694024L0 29.0476L11.8457 35.6885C12.5896 36.1038 13.4956 36.1038 14.2394 35.6885L26.1874 29.0476L22.7933 8.04481Z" fill="url(#paint0_linear_1_49)"/>
<mask id="mask0_1_49" style="mask-type:luminance" maskUnits="userSpaceOnUse" x="0" y="0" width="27" height="36">
<path d="M22.7933 8.04481C22.7421 7.74317 22.5268 7.49531 22.2353 7.4023C21.9438 7.3093 21.6248 7.38668 21.4083 7.60289L17.1589 11.8624L13.818 5.50179C13.6765 5.23285 13.3976 5.06447 13.0937 5.06447C12.7898 5.06447 12.511 5.23285 12.3695 5.50179L10.5425 8.97979L5.95969 0.432154C5.79348 0.121691 5.44731 -0.0476296 5.10019 0.0117685C4.75308 0.0711664 4.48288 0.345962 4.42936 0.694024L0 29.0476L11.8457 35.6885C12.5896 36.1038 13.4956 36.1038 14.2394 35.6885L26.1874 29.0476L22.7933 8.04481Z" fill="white"/>
</mask>
<g mask="url(#mask0_1_49)">
<path d="M0 29.0481L4.43142 0.692436C4.48559 0.344678 4.75605 0.070503 5.10302 0.0115893C5.45003 -0.0473242 5.79583 0.12222 5.96172 0.432615L10.5445 8.98023L12.3715 5.50227C12.513 5.23333 12.7919 5.06495 13.0958 5.06495C13.3997 5.06495 13.6785 5.23333 13.82 5.50227L26.1874 29.0481H0Z" fill="#030F2B"/>
<path d="M15.3094 18.0054L10.5425 8.979L0 29.051L15.3094 18.0054Z" fill="white"/>
</g>
<mask id="mask1_1_49" style="mask-type:luminance" maskUnits="userSpaceOnUse" x="0" y="0" width="27" height="36">
<path d="M22.7933 8.04481C22.7421 7.74317 22.5268 7.49531 22.2353 7.4023C21.9438 7.3093 21.6248 7.38668 21.4083 7.60289L17.1589 11.8624L13.818 5.50179C13.6765 5.23285 13.3976 5.06447 13.0937 5.06447C12.7898 5.06447 12.511 5.23285 12.3695 5.50179L10.5425 8.97979L5.95969 0.432154C5.79348 0.121691 5.44731 -0.0476296 5.10019 0.0117685C4.75308 0.0711664 4.48288 0.345962 4.42936 0.694024L0 29.0476L11.8457 35.6885C12.5896 36.1038 13.4956 36.1038 14.2394 35.6885L26.1874 29.0476L22.7933 8.04481Z" fill="white"/>
</mask>
<g mask="url(#mask1_1_49)">
<path d="M26.1874 29.0503L22.7933 8.04746C22.7421 7.74579 22.5268 7.49796 22.2353 7.40495C21.9438 7.31195 21.6248 7.38933 21.4083 7.60554L0 29.0503L11.8457 35.6932C12.5896 36.1085 13.4956 36.1085 14.2394 35.6932L26.1874 29.0503Z" fill="#030F2B"/>
</g>
<mask id="mask2_1_49" style="mask-type:luminance" maskUnits="userSpaceOnUse" x="0" y="0" width="27" height="36">
<path d="M22.7933 8.04481C22.7421 7.74317 22.5268 7.49531 22.2353 7.4023C21.9438 7.3093 21.6248 7.38668 21.4083 7.60289L17.1589 11.8624L13.818 5.50179C13.6765 5.23285 13.3976 5.06447 13.0937 5.06447C12.7898 5.06447 12.511 5.23285 12.3695 5.50179L10.5425 8.97979L5.95969 0.432154C5.79348 0.121691 5.44731 -0.0476296 5.10019 0.0117685C4.75308 0.0711664 4.48288 0.345962 4.42936 0.694024L0 29.0476L11.8457 35.6885C12.5896 36.1038 13.4956 36.1038 14.2394 35.6885L26.1874 29.0476L22.7933 8.04481Z" fill="white"/>
</mask>
<g mask="url(#mask2_1_49)">
<path d="M22.7945 8.04481C22.7432 7.74317 22.5279 7.49531 22.2364 7.4023C21.9449 7.3093 21.6259 7.38667 21.4094 7.60289L17.1601 11.8624L13.8191 5.50179C13.6776 5.23285 13.3988 5.06447 13.0949 5.06447C12.791 5.06447 12.5121 5.23285 12.3706 5.50179L10.5436 8.97978L5.96082 0.432154C5.79464 0.121691 5.44843 -0.0476296 5.10132 0.0117685C4.75421 0.0711664 4.484 0.345962 4.43052 0.694024L0.00113748 29.0476H-0.0131836L0.00113748 29.064L0.117754 29.1213L17.1519 12.067L21.4033 7.81159C21.6196 7.59418 21.9394 7.51601 22.2317 7.60912C22.524 7.70224 22.7396 7.95097 22.7904 8.25348L26.1559 29.0681L26.1886 29.0476L22.7945 8.04481ZM0.0400096 29.0088L4.43255 0.894518C4.48607 0.546457 4.75624 0.271661 5.10335 0.212263C5.45046 0.152865 5.79667 0.322186 5.96288 0.632648L10.5457 9.18026L12.3727 5.7023C12.5142 5.43337 12.793 5.26498 13.0969 5.26498C13.4008 5.26498 13.6797 5.43337 13.8212 5.7023L17.0946 11.9279L0.0400096 29.0088Z" fill="white" fill-opacity="0.2"/>
</g>
<mask id="mask3_1_49" style="mask-type:luminance" maskUnits="userSpaceOnUse" x="0" y="0" width="27" height="36">
<path d="M22.7933 8.04481C22.7421 7.74317 22.5268 7.49531 22.2353 7.4023C21.9438 7.3093 21.6248 7.38668 21.4083 7.60289L17.1589 11.8624L13.818 5.50179C13.6765 5.23285 13.3976 5.06447 13.0937 5.06447C12.7898 5.06447 12.511 5.23285 12.3695 5.50179L10.5425 8.97979L5.95969 0.432154C5.79348 0.121691 5.44731 -0.0476296 5.10019 0.0117685C4.75308 0.0711664 4.48288 0.345962 4.42936 0.694024L0 29.0476L11.8457 35.6885C12.5896 36.1038 13.4956 36.1038 14.2394 35.6885L26.1874 29.0476L22.7933 8.04481Z" fill="white"/>
</mask>
<g mask="url(#mask3_1_49)">
<path opacity="0.2" d="M14.2394 35.49C13.4956 35.9054 12.5896 35.9054 11.8457 35.49L0.0286425 28.8655L0 29.0476L11.8457 35.6885C12.5896 36.1038 13.4956 36.1038 14.2394 35.6885L26.1874 29.0476L26.1568 28.8594L14.2394 35.49Z" fill="#030F2B"/>
</g>
<path d="M22.7588 8.05082C22.7077 7.74929 22.4932 7.50157 22.2027 7.4086C21.9122 7.31563 21.5943 7.39297 21.3785 7.60911L17.1441 11.8667L13.8148 5.50892C13.6738 5.2401 13.3959 5.07178 13.0931 5.07178C12.7903 5.07178 12.5124 5.2401 12.3714 5.50892L10.5508 8.98536L5.984 0.441489C5.81841 0.13116 5.4734 -0.0380873 5.12752 0.0212848C4.7816 0.0806569 4.51238 0.355333 4.45904 0.703243L0.045166 29.0445L11.8495 35.6824C12.5907 36.0976 13.4935 36.0976 14.2348 35.6824L26.1411 29.0445L22.7588 8.05082Z" fill="url(#paint1_linear_1_49)"/>
</g>
<defs>
<linearGradient id="paint0_linear_1_49" x1="-91.4516" y1="612.785" x2="3172.11" y2="2339.55" gradientUnits="userSpaceOnUse">
<stop stop-color="white" stop-opacity="0.1"/>
<stop offset="0.14" stop-color="white" stop-opacity="0.08"/>
<stop offset="0.61" stop-color="white" stop-opacity="0.02"/>
<stop offset="1" stop-color="white" stop-opacity="0"/>
</linearGradient>
<linearGradient id="paint1_linear_1_49" x1="-91.0866" y1="612.525" x2="3165.42" y2="2330.29" gradientUnits="userSpaceOnUse">
<stop stop-color="white" stop-opacity="0.1"/>
<stop offset="0.14" stop-color="white" stop-opacity="0.08"/>
<stop offset="0.61" stop-color="white" stop-opacity="0.02"/>
<stop offset="1" stop-color="white" stop-opacity="0"/>
</linearGradient>
</defs>
</svg>
