<svg width="151" height="30" viewBox="0 0 151 30" fill="none" xmlns="http://www.w3.org/2000/svg">
<g opacity="0.6">
<path d="M15.6218 23.6841C21.244 23.6841 25.5893 19.4426 25.5893 14.2106C25.5893 9.3088 21.5069 6.31585 18.803 6.31585C15.0377 6.31585 12.0197 8.95445 11.5897 12.8715C11.5101 13.5969 10.9345 14.2053 10.2042 14.2C8.98993 14.1913 7.22472 14.181 6.10727 14.1849C5.62622 14.1865 5.22844 13.7966 5.25224 13.3165C5.42087 9.91935 6.55832 6.74285 8.72742 4.3028C11.1376 1.59145 14.6476 0 18.803 0C25.7847 0 32.3756 6.33495 32.3756 14.2106C32.3756 22.9307 25.1404 30 15.7704 30C9.08808 30 2.35793 25.639 0.00818939 19.5422C-0.000530136 19.5196 -0.00193513 19.496 0.00231188 19.4715C0.03357 19.2911 0.0957116 19.1263 0.156907 18.9641C0.245882 18.7281 0.332854 18.4975 0.320153 18.2316L0.27954 17.3824C0.25953 16.9634 0.496564 16.5738 0.879982 16.3956L1.21966 16.2377C1.60697 16.0576 1.88229 15.703 1.95849 15.2861C2.07234 14.6634 2.61988 14.2106 3.25897 14.2106C4.25692 14.2106 5.12479 14.8733 5.45081 15.8155C7.01987 20.3507 9.51423 23.6841 15.6218 23.6841Z" fill="#030F2B"/>
<path d="M139.904 10.4779C138.658 10.4779 138.275 9.73636 138.275 8.89921C138.275 8.01426 138.586 7.32056 139.904 7.32056C141.22 7.32056 141.531 8.01426 141.531 8.89921C141.531 9.73636 141.196 10.4779 139.904 10.4779Z" fill="#030F2B"/>
<path d="M117.178 20.746V14.5988L115.426 14.5902V13.8746C115.426 13.0952 116.061 12.4645 116.841 12.4683L117.178 12.47V9.86279L119.979 9.07349V12.47H122.517V13.1926C122.517 13.9692 121.887 14.5988 121.109 14.5988H119.979V20.3872C119.979 21.2782 120.484 21.5912 121.135 21.6988C121.903 21.8255 122.541 22.3802 122.541 23.1569V24.2142C119.888 24.2142 117.178 24.0974 117.178 20.746Z" fill="#030F2B"/>
<path fill-rule="evenodd" clip-rule="evenodd" d="M61.915 12.2028C59.1135 12.131 55.666 13.901 55.666 18.326C55.666 22.6792 59.1135 24.4014 61.915 24.3297C64.788 24.4014 68.2121 22.6792 68.2121 18.326C68.2121 13.901 64.788 12.131 61.915 12.2028ZM61.9355 22.157C59.9005 22.157 58.4565 20.6757 58.4565 18.236C58.4565 15.9158 59.9015 14.3873 61.9365 14.3873C63.9715 14.3873 65.4005 15.9127 65.4005 18.2328C65.4005 20.6726 63.9705 22.157 61.9355 22.157Z" fill="#030F2B"/>
<path d="M75.5692 12.2329C78.0112 12.2329 80.5492 12.9026 80.5492 17.6864V24.0968H78.9882C78.2107 24.0968 77.5802 23.4672 77.5802 22.6906V17.4473C77.5802 15.1749 76.7427 14.3139 75.2817 14.3139C74.4677 14.3139 73.4147 14.9357 72.9117 15.4381V22.6906C72.9117 23.4672 72.2812 24.0968 71.5042 24.0968H70.0862V12.5199H71.6657C72.2267 12.5199 72.7137 12.9067 72.8397 13.4528C73.5582 12.6634 74.4917 12.2329 75.5692 12.2329Z" fill="#030F2B"/>
<path d="M83.7525 12.4976C84.3475 12.4976 84.8781 12.8713 85.0781 13.4311L87.6416 20.6062L90.2051 13.4312C90.4051 12.8713 90.9356 12.4976 91.5306 12.4976H93.5551L89.3801 23.1797C89.1691 23.7193 88.6486 24.0744 88.0686 24.0744H86.2771L81.7275 12.4976H83.7525Z" fill="#030F2B"/>
<path fill-rule="evenodd" clip-rule="evenodd" d="M104.624 23.512C103.738 23.8708 101.941 24.3487 100.074 24.3487C96.7938 24.3487 94.2812 22.4593 94.2812 18.2017C94.2812 14.3746 96.7168 12.3284 99.6858 12.3284C103.35 12.3284 104.913 14.7855 104.75 18.1305C104.716 18.8216 104.114 19.3257 103.422 19.3257H97.1053C97.2488 21.1914 98.6133 22.1721 100.409 22.1721C101.114 22.1721 101.855 22.1363 102.744 21.9705C103.686 21.7946 104.624 22.4643 104.624 23.4219V23.512ZM102.214 17.3643C102.407 15.5336 101.17 14.529 99.6858 14.529C98.2013 14.529 97.2003 15.6422 97.1053 17.3643H102.214Z" fill="#030F2B"/>
<path d="M108.481 12.5209C109.015 12.5209 109.481 12.8865 109.608 13.4059C110.565 12.6883 111.763 12.2339 112.6 12.2339C112.673 12.2339 113.127 12.2339 113.846 12.3296V13.5708C113.846 14.2381 113.268 14.7453 112.6 14.7453C111.835 14.7453 110.709 15.0324 109.823 15.5347V24.0977H106.974V12.5209H108.481Z" fill="#030F2B"/>
<path d="M141.339 22.6596V12.489H139.922C139.144 12.489 138.514 13.1186 138.514 13.8953V24.0658H139.932C140.709 24.0658 141.339 23.4363 141.339 22.6596Z" fill="#030F2B"/>
<path d="M145.193 20.7678V14.6205H143.301V13.8979C143.301 13.1213 143.932 12.4917 144.709 12.4917H145.193V9.88457L147.994 9.09521V12.4917H150.532V13.2143C150.532 13.9909 149.902 14.6205 149.124 14.6205H147.994V20.409C147.994 21.3 148.5 21.613 149.151 21.7206C149.918 21.8473 150.556 22.402 150.556 23.1786V24.236C147.903 24.236 145.193 24.1191 145.193 20.7678Z" fill="#030F2B"/>
<path d="M41.6667 15.9375C41.6846 10.5247 45.7705 7.5 49.6915 7.5C51.8693 7.5 53.8663 7.96875 55.5083 9.14065L54.8438 10.0513C54.3998 10.6605 53.5568 10.9026 52.8553 10.6254C51.8643 10.2341 50.9318 10.1515 50.2365 10.1515C47.0283 10.1515 44.6088 12.2108 44.5915 15.9374C44.6088 19.6639 47.0283 21.753 50.2365 21.753C50.9318 21.753 51.8643 21.6704 52.8553 21.2791C53.5568 21.0019 54.3998 21.2146 54.8438 21.8238L55.5083 22.7344C53.8663 23.9063 51.8693 24.375 49.6915 24.375C45.7705 24.375 41.6846 21.3504 41.6667 15.9375Z" fill="#030F2B"/>
<path d="M126.014 7.58423C126.791 7.58423 127.421 8.21383 127.421 8.99048V15.4377L133.183 8.20468C133.448 7.84498 133.869 7.63268 134.316 7.63268H136.876L130.361 15.8502L136.876 24.0646H134.316C133.869 24.0646 133.448 23.8523 133.183 23.4926L127.421 16.2615V22.6582C127.421 23.4349 126.791 24.0645 126.014 24.0645H124.524V7.58423H126.014Z" fill="#030F2B"/>
</g>
</svg>
