<svg width="110" height="27" viewBox="0 0 110 27" fill="none" xmlns="http://www.w3.org/2000/svg">
<path fill-rule="evenodd" clip-rule="evenodd" d="M0 6.15431L11.8542 0L23.8357 6.15431L11.8542 12.3241L0 6.15431ZM71.1639 9.14276V8.99415C71.1639 6.96897 72.3554 6.31949 74.3617 6.46335V2.7604C69.5548 2.46739 67.2766 4.87564 67.2766 8.99415V9.14276H65.103V12.8462H67.2766V24.0563H71.1639V12.8462H75.6368V24.0563H79.5242V12.8462H82.722V9.14276H79.5242V8.99415C79.5242 6.96897 80.6946 6.31949 82.722 6.46335V2.7604C77.9151 2.46739 75.6368 4.87564 75.6368 8.99415V9.14276H71.1639ZM43.9932 13.1979C45.2257 12.2175 45.9779 10.8163 45.9779 9.01546C45.9779 5.52507 43.1358 3.13873 39.5619 3.13873H31.2637V24.0136H40.2305C43.888 24.0136 46.8143 21.5468 46.8143 17.9717C46.7728 15.8139 45.6855 14.1617 43.9932 13.1979ZM39.5824 7.0068C40.9201 7.0068 41.8402 7.99192 41.8402 9.30847C41.8402 10.6293 40.878 11.6096 39.5824 11.6096H35.4236V7.0068H39.5824ZM40.2094 20.1882H35.4236V15.2699H40.2094C41.6313 15.2699 42.655 16.3142 42.655 17.7155C42.655 19.1386 41.6313 20.1882 40.2094 20.1882ZM58.9368 9.12144V17.1726C58.9368 19.7672 57.516 20.8755 55.6138 20.8755C53.8579 20.8755 52.6249 19.8312 52.6249 17.8007V9.12144H48.737V18.2808C48.737 22.2554 51.2246 24.4559 54.4434 24.4559C56.4708 24.4559 58.0378 23.6993 58.9163 22.362V24.035H62.8031V9.12144H58.9368ZM98.8365 18.1577H87.4668C88.0312 20.1243 89.6609 20.9607 91.6888 20.9607C93.2142 20.9607 94.4268 20.3315 95.0748 19.4742L98.21 21.2538C96.8097 23.2832 94.552 24.4559 91.6467 24.4559C86.5889 24.4559 83.3911 21.0247 83.3911 16.5705C83.3911 12.111 86.6099 8.67923 91.3542 8.67923C95.8066 8.67923 98.9833 12.1749 98.9833 16.5705C98.9833 17.1512 98.9207 17.6574 98.8365 18.1577ZM91.3542 12.1749C89.2648 12.1749 87.8424 13.2831 87.4037 15.1847H95.0954C94.6146 13.0327 92.9844 12.1749 91.3542 12.1749ZM104.606 11.6949V9.12144H100.718V24.035H104.606V16.9008C104.606 13.7621 107.156 12.8676 109.183 13.1175V8.82897C107.281 8.82897 105.379 9.66543 104.606 11.6949ZM11.8542 22.8788L3.76689 18.4832L0 20.5238L11.8542 26.96L23.8357 20.5238L20.0262 18.4832L11.8542 22.8788ZM3.76689 11.5515L11.8542 15.5363L20.0262 11.5515L23.8357 13.411L11.8542 19.2558L0 13.411L3.76689 11.5515Z" fill="#0D2665"/>
</svg>
