<svg width="91" height="34" viewBox="0 0 91 34" fill="none" xmlns="http://www.w3.org/2000/svg">
<g opacity="0.6">
<path d="M14.0499 8.1119L7.02394 4.05595L0 8.1119V4.05595L7.02493 0L14.0508 4.05595V8.1119H14.0499Z" fill="#030F2B"/>
<path d="M0 11.5181H3.67996V20.459C3.67996 22.769 5.40496 23.8949 7.02493 23.8949C8.65891 23.8949 10.3709 22.739 10.3709 20.428V11.5181H14.0508V20.672C14.0508 22.7999 13.3819 24.4419 12.0439 25.5679C10.7049 26.6929 9.0329 27.2409 6.99394 27.2409C4.95696 27.2409 3.28397 26.6939 1.97698 25.5679C0.668994 24.4429 0 22.862 0 20.763V11.5181ZM45.8656 22.63C44.7514 23.622 43.4826 24.1079 42.0357 24.1079C39.3957 24.1079 37.6256 22.604 37.4255 20.275H49.3156C49.3156 20.275 49.3954 19.523 49.3954 18.817C49.3954 16.627 48.6955 14.8021 47.2654 13.3121C45.8676 11.8221 44.0437 11.0921 41.8226 11.0921C39.4816 11.0921 37.5646 11.8221 36.0438 13.3121C34.5536 14.8021 33.7936 16.748 33.7936 19.182V19.302C33.7936 21.705 34.5536 23.6209 36.0438 25.0509C37.5336 26.4799 39.5105 27.2099 41.9137 27.2099C44.7075 27.2099 46.9306 26.1079 48.5984 24.2079L45.8656 22.63ZM38.8717 15.167C39.6916 14.5281 40.6966 14.1941 41.8216 14.1941C42.8856 14.1941 43.7676 14.5281 44.5285 15.1981C45.2546 15.808 45.6467 16.557 45.6805 17.418H37.5196C37.6375 16.528 38.0876 15.778 38.8727 15.1681L38.8717 15.167ZM82.9092 29.2759C81.416 32.8008 79.8543 33.9998 77.4593 33.9998H75.7991V30.7379H77.1413C77.9653 30.7379 78.7313 30.4279 79.4612 28.7439L80.1911 27.0579L73.8954 11.5181H77.6363L82.1071 22.7099L86.7002 11.5181H90.4401L82.9103 29.2759H82.9092ZM28.3767 5.64917V12.9061C27.1707 11.8261 25.2948 11.1831 23.4808 11.1831C21.3208 11.1831 19.4968 11.9431 18.0068 13.4931C16.5468 15.014 15.8168 16.899 15.8168 19.18C15.8168 21.462 16.5468 23.3469 18.0068 24.8979C19.4968 26.4189 21.3218 27.1799 23.4808 27.1799C25.9707 27.1799 27.5447 26.2009 28.3767 25.4339V26.8449H32.0267V5.65016H28.3767V5.64917ZM27.2817 22.527C26.3997 23.409 25.2747 23.866 23.9668 23.866C22.6588 23.866 21.5948 23.409 20.7128 22.527C19.8628 21.645 19.4358 20.52 19.4358 19.182C19.4358 17.843 19.8618 16.718 20.7128 15.8361C21.5948 14.954 22.6588 14.4981 23.9668 14.4981C25.2747 14.4981 26.3997 14.954 27.2817 15.8361C28.1937 16.718 28.6517 17.843 28.6517 19.182C28.6517 20.52 28.1937 21.645 27.2817 22.527ZM68.2212 11.2141C65.4492 11.2141 64.0085 12.3641 63.0215 13.4721C62.6264 12.7191 61.5143 11.2141 58.9165 11.2141C56.7204 11.2141 55.4266 12.3241 54.7805 13.1141V11.5201H51.1624V26.8469H54.7805V18.027C54.7805 15.959 56.0583 14.469 57.7605 14.469C59.4954 14.469 60.4984 15.777 60.4984 17.875V26.8459H64.1172V18.026C64.1172 15.928 65.3633 14.4681 67.1572 14.4681C68.8914 14.4681 69.8944 15.776 69.8944 17.873V26.8449H73.5443V17.357C73.5443 13.3611 71.3961 11.2151 68.2212 11.2151V11.2141Z" fill="#030F2B"/>
</g>
</svg>
