<svg width="94" height="30" viewBox="0 0 94 30" fill="none" xmlns="http://www.w3.org/2000/svg">
<g opacity="0.6">
<path d="M92.8967 20.5207C92.8089 20.5244 92.725 20.5561 92.6567 20.6112C92.5883 20.6664 92.5395 20.742 92.5172 20.8269C91.5583 23.562 90.2628 25.1914 89.1972 25.1914C88.5844 25.1914 88.3361 24.5084 88.3361 23.4364C88.3361 20.7565 89.9411 15.0751 90.75 12.4839C90.8389 12.2147 90.8906 11.9343 90.9028 11.6508C90.9028 10.8974 90.4922 10.5268 89.4728 10.5268C88.3733 10.5268 87.1911 10.9556 86.0395 12.977C85.6411 11.2006 84.4406 10.4227 82.7589 10.4227C80.8172 10.4227 78.9428 11.6723 77.3989 13.6968C75.8556 15.7213 74.03 16.3859 72.6767 16.0582C73.6594 13.6539 74.0239 11.8591 74.0239 10.5237C74.0239 8.43183 72.9917 7.17 71.3195 7.17C68.7806 7.17 67.3167 9.59267 67.3167 12.1409C67.3167 14.1103 68.2111 16.1225 70.1739 17.1179C68.5261 20.8423 66.125 24.2083 65.2122 24.2083C64.0333 24.2083 63.6811 18.4411 63.7544 14.3154C63.7972 11.9479 63.9933 11.8285 63.9933 11.1118C63.9933 10.7014 63.7272 10.4196 62.655 10.4196C60.1589 10.4196 59.3872 12.5329 59.2678 14.9617C59.23 15.8838 59.0861 16.7986 58.8389 17.6876C57.7944 21.4119 55.6444 24.2358 54.2444 24.2358C53.5956 24.2358 53.4178 23.5865 53.4178 22.7351C53.4178 20.0551 54.9183 16.7075 54.9183 13.853C54.9183 11.7519 53.9994 10.4257 52.2628 10.4257C50.22 10.4257 47.5156 12.8576 44.9583 17.415C45.8006 13.9265 46.1467 10.5482 43.6533 10.5482C43.1133 10.556 42.5828 10.6936 42.1067 10.9494C41.9467 11.0242 41.8133 11.1454 41.7228 11.2973C41.6328 11.4492 41.5906 11.6247 41.6017 11.8009C41.8406 15.5161 38.6094 25.0291 35.5433 25.0291C34.9861 25.0291 34.7167 24.4166 34.7167 23.4518C34.7167 20.7657 36.315 15.0996 37.1206 12.5023C37.2161 12.2186 37.27 11.9224 37.28 11.6233C37.28 10.9127 36.8389 10.5482 35.8433 10.5482C34.75 10.5482 33.5617 10.9648 32.4161 12.9801C32.015 11.2037 30.8117 10.4257 29.1328 10.4257C26.3767 10.4257 23.3139 13.3384 21.9478 17.1363C20.1378 22.2052 16.4899 27.1026 11.5773 27.1026C7.12095 27.1026 4.76872 23.3936 4.76872 17.5344C4.76872 9.072 10.98 2.15928 15.5864 2.15928C17.7886 2.15928 18.8421 3.562 18.8421 5.71517C18.8421 8.32161 17.3873 9.53139 17.3873 10.5237C17.3873 10.83 17.6385 11.1363 18.1408 11.1363C20.1439 11.1363 22.4989 8.78406 22.4989 5.57428C22.4989 2.3645 19.8867 0 15.2771 0C7.66306 0 0 7.65694 0 17.4793C0 25.2894 3.85295 30 10.5176 30C15.0627 30 19.035 26.4656 21.1761 22.3431C21.4178 25.7611 22.9706 27.5498 25.3383 27.5498C27.4422 27.5498 29.1456 26.2971 30.4472 24.0919C30.9461 26.3982 32.2844 27.5253 34.0028 27.5253C35.9811 27.5253 37.6383 26.2726 39.2094 23.9418C39.185 25.7794 39.6017 27.4916 41.1883 27.4916C41.9356 27.4916 42.83 27.317 42.9889 26.6646C44.6583 19.7611 48.7839 14.1256 50.0333 14.1256C50.4072 14.1256 50.5111 14.487 50.5111 14.9127C50.5111 16.7871 49.1878 20.634 49.1878 23.0873C49.1878 25.7397 50.315 27.4947 52.6461 27.4947C55.2278 27.4947 57.8528 24.3338 59.6017 19.7121C60.1494 24.0306 61.3317 27.513 63.185 27.513C65.4572 27.513 69.4945 22.7289 71.9411 17.6631C73.2694 17.8586 74.6217 17.5409 75.7239 16.7749C75.1183 18.2882 74.8011 19.9014 74.7895 21.5314C74.7895 26.2328 77.0345 27.5498 78.9672 27.5498C81.0683 27.5498 82.7711 26.2971 84.0761 24.0919C84.505 26.0796 85.6072 27.5191 87.6256 27.5191C90.7867 27.5191 93.5339 24.2879 93.5339 21.6356C93.5461 20.9372 93.2461 20.5207 92.8967 20.5207ZM27.2711 24.9464C25.9939 24.9464 25.4944 23.66 25.4944 21.7427C25.4944 18.4134 27.7733 12.8606 30.1806 12.8606C31.2339 12.8606 31.6294 14.0858 31.6294 15.6172C31.6294 18.9893 29.4639 24.9464 27.2711 24.9464ZM71.0072 15.0077C70.2978 14.0794 69.9311 12.9347 69.9689 11.7672C69.9689 10.4104 70.465 9.26494 71.0594 9.26494C71.6533 9.26494 71.8372 9.84995 71.8372 10.6646C71.8339 12.0245 71.3472 14.0122 71.0072 15.0077ZM80.9089 24.9464C79.6317 24.9464 79.1328 23.4671 79.1328 21.7427C79.1328 18.5298 81.4117 12.8606 83.8372 12.8606C84.8906 12.8606 85.2645 14.0858 85.2645 15.6172C85.2645 18.9893 83.1356 24.9464 80.9089 24.9464Z" fill="#030F2B"/>
<path d="M92.8967 20.5207C92.8089 20.5244 92.725 20.5561 92.6567 20.6112C92.5883 20.6664 92.5395 20.742 92.5172 20.8269C91.5583 23.562 90.2628 25.1914 89.1972 25.1914C88.5844 25.1914 88.3361 24.5084 88.3361 23.4364C88.3361 20.7565 89.9411 15.0751 90.75 12.4839C90.8389 12.2147 90.8906 11.9343 90.9028 11.6508C90.9028 10.8974 90.4922 10.5268 89.4728 10.5268C88.3733 10.5268 87.1911 10.9556 86.0395 12.977C85.6411 11.2006 84.4406 10.4227 82.7589 10.4227C80.8172 10.4227 78.9428 11.6723 77.3989 13.6968C75.8556 15.7213 74.03 16.3859 72.6767 16.0582C73.6594 13.6539 74.0239 11.8591 74.0239 10.5237C74.0239 8.43183 72.9917 7.17 71.3195 7.17C68.7806 7.17 67.3167 9.59267 67.3167 12.1409C67.3167 14.1103 68.2111 16.1225 70.1739 17.1179C68.5261 20.8423 66.125 24.2083 65.2122 24.2083C64.0333 24.2083 63.6811 18.4411 63.7544 14.3154C63.7972 11.9479 63.9933 11.8285 63.9933 11.1118C63.9933 10.7014 63.7272 10.4196 62.655 10.4196C60.1589 10.4196 59.3872 12.5329 59.2678 14.9617C59.23 15.8838 59.0861 16.7986 58.8389 17.6876C57.7944 21.4119 55.6444 24.2358 54.2444 24.2358C53.5956 24.2358 53.4178 23.5865 53.4178 22.7351C53.4178 20.0551 54.9183 16.7075 54.9183 13.853C54.9183 11.7519 53.9994 10.4257 52.2628 10.4257C50.22 10.4257 47.5156 12.8576 44.9583 17.415C45.8006 13.9265 46.1467 10.5482 43.6533 10.5482C43.1133 10.556 42.5828 10.6936 42.1067 10.9494C41.9467 11.0242 41.8133 11.1454 41.7228 11.2973C41.6328 11.4492 41.5906 11.6247 41.6017 11.8009C41.8406 15.5161 38.6094 25.0291 35.5433 25.0291C34.9861 25.0291 34.7167 24.4166 34.7167 23.4518C34.7167 20.7657 36.315 15.0996 37.1206 12.5023C37.2161 12.2186 37.27 11.9224 37.28 11.6233C37.28 10.9127 36.8389 10.5482 35.8433 10.5482C34.75 10.5482 33.5617 10.9648 32.4161 12.9801C32.015 11.2037 30.8117 10.4257 29.1328 10.4257C26.3767 10.4257 23.3139 13.3384 21.9478 17.1363C20.1378 22.2052 16.4899 27.1026 11.5773 27.1026C7.12095 27.1026 4.76872 23.3936 4.76872 17.5344C4.76872 9.072 10.98 2.15928 15.5864 2.15928C17.7886 2.15928 18.8421 3.562 18.8421 5.71517C18.8421 8.32161 17.3873 9.53139 17.3873 10.5237C17.3873 10.83 17.6385 11.1363 18.1408 11.1363C20.1439 11.1363 22.4989 8.78406 22.4989 5.57428C22.4989 2.3645 19.8867 0 15.2771 0C7.66306 0 0 7.65694 0 17.4793C0 25.2894 3.85295 30 10.5176 30C15.0627 30 19.035 26.4656 21.1761 22.3431C21.4178 25.7611 22.9706 27.5498 25.3383 27.5498C27.4422 27.5498 29.1456 26.2971 30.4472 24.0919C30.9461 26.3982 32.2844 27.5253 34.0028 27.5253C35.9811 27.5253 37.6383 26.2726 39.2094 23.9418C39.185 25.7794 39.6017 27.4916 41.1883 27.4916C41.9356 27.4916 42.83 27.317 42.9889 26.6646C44.6583 19.7611 48.7839 14.1256 50.0333 14.1256C50.4072 14.1256 50.5111 14.487 50.5111 14.9127C50.5111 16.7871 49.1878 20.634 49.1878 23.0873C49.1878 25.7397 50.315 27.4947 52.6461 27.4947C55.2278 27.4947 57.8528 24.3338 59.6017 19.7121C60.1494 24.0306 61.3317 27.513 63.185 27.513C65.4572 27.513 69.4945 22.7289 71.9411 17.6631C73.2694 17.8586 74.6217 17.5409 75.7239 16.7749C75.1183 18.2882 74.8011 19.9014 74.7895 21.5314C74.7895 26.2328 77.0345 27.5498 78.9672 27.5498C81.0683 27.5498 82.7711 26.2971 84.0761 24.0919C84.505 26.0796 85.6072 27.5191 87.6256 27.5191C90.7867 27.5191 93.5339 24.2879 93.5339 21.6356C93.5461 20.9372 93.2461 20.5207 92.8967 20.5207ZM27.2711 24.9464C25.9939 24.9464 25.4944 23.66 25.4944 21.7427C25.4944 18.4134 27.7733 12.8606 30.1806 12.8606C31.2339 12.8606 31.6294 14.0858 31.6294 15.6172C31.6294 18.9893 29.4639 24.9464 27.2711 24.9464ZM71.0072 15.0077C70.2978 14.0794 69.9311 12.9347 69.9689 11.7672C69.9689 10.4104 70.465 9.26494 71.0594 9.26494C71.6533 9.26494 71.8372 9.84995 71.8372 10.6646C71.8339 12.0245 71.3472 14.0122 71.0072 15.0077ZM80.9089 24.9464C79.6317 24.9464 79.1328 23.4671 79.1328 21.7427C79.1328 18.5298 81.4117 12.8606 83.8372 12.8606C84.8906 12.8606 85.2645 14.0858 85.2645 15.6172C85.2645 18.9893 83.1356 24.9464 80.9089 24.9464Z" fill="#030F2B"/>
<path d="M92.8967 20.5207C92.8089 20.5244 92.725 20.5561 92.6567 20.6112C92.5883 20.6664 92.5395 20.742 92.5172 20.8269C91.5583 23.562 90.2628 25.1914 89.1972 25.1914C88.5844 25.1914 88.3361 24.5084 88.3361 23.4364C88.3361 20.7565 89.9411 15.0751 90.75 12.4839C90.8389 12.2147 90.8906 11.9343 90.9028 11.6508C90.9028 10.8974 90.4922 10.5268 89.4728 10.5268C88.3733 10.5268 87.1911 10.9556 86.0395 12.977C85.6411 11.2006 84.4406 10.4227 82.7589 10.4227C80.8172 10.4227 78.9428 11.6723 77.3989 13.6968C75.8556 15.7213 74.03 16.3859 72.6767 16.0582C73.6594 13.6539 74.0239 11.8591 74.0239 10.5237C74.0239 8.43183 72.9917 7.17 71.3195 7.17C68.7806 7.17 67.3167 9.59267 67.3167 12.1409C67.3167 14.1103 68.2111 16.1225 70.1739 17.1179C68.5261 20.8423 66.125 24.2083 65.2122 24.2083C64.0333 24.2083 63.6811 18.4411 63.7544 14.3154C63.7972 11.9479 63.9933 11.8285 63.9933 11.1118C63.9933 10.7014 63.7272 10.4196 62.655 10.4196C60.1589 10.4196 59.3872 12.5329 59.2678 14.9617C59.23 15.8838 59.0861 16.7986 58.8389 17.6876C57.7944 21.4119 55.6444 24.2358 54.2444 24.2358C53.5956 24.2358 53.4178 23.5865 53.4178 22.7351C53.4178 20.0551 54.9183 16.7075 54.9183 13.853C54.9183 11.7519 53.9994 10.4257 52.2628 10.4257C50.22 10.4257 47.5156 12.8576 44.9583 17.415C45.8006 13.9265 46.1467 10.5482 43.6533 10.5482C43.1133 10.556 42.5828 10.6936 42.1067 10.9494C41.9467 11.0242 41.8133 11.1454 41.7228 11.2973C41.6328 11.4492 41.5906 11.6247 41.6017 11.8009C41.8406 15.5161 38.6094 25.0291 35.5433 25.0291C34.9861 25.0291 34.7167 24.4166 34.7167 23.4518C34.7167 20.7657 36.315 15.0996 37.1206 12.5023C37.2161 12.2186 37.27 11.9224 37.28 11.6233C37.28 10.9127 36.8389 10.5482 35.8433 10.5482C34.75 10.5482 33.5617 10.9648 32.4161 12.9801C32.015 11.2037 30.8117 10.4257 29.1328 10.4257C26.3767 10.4257 23.3139 13.3384 21.9478 17.1363C20.1378 22.2052 16.4899 27.1026 11.5773 27.1026C7.12095 27.1026 4.76872 23.3936 4.76872 17.5344C4.76872 9.072 10.98 2.15928 15.5864 2.15928C17.7886 2.15928 18.8421 3.562 18.8421 5.71517C18.8421 8.32161 17.3873 9.53139 17.3873 10.5237C17.3873 10.83 17.6385 11.1363 18.1408 11.1363C20.1439 11.1363 22.4989 8.78406 22.4989 5.57428C22.4989 2.3645 19.8867 0 15.2771 0C7.66306 0 0 7.65694 0 17.4793C0 25.2894 3.85295 30 10.5176 30C15.0627 30 19.035 26.4656 21.1761 22.3431C21.4178 25.7611 22.9706 27.5498 25.3383 27.5498C27.4422 27.5498 29.1456 26.2971 30.4472 24.0919C30.9461 26.3982 32.2844 27.5253 34.0028 27.5253C35.9811 27.5253 37.6383 26.2726 39.2094 23.9418C39.185 25.7794 39.6017 27.4916 41.1883 27.4916C41.9356 27.4916 42.83 27.317 42.9889 26.6646C44.6583 19.7611 48.7839 14.1256 50.0333 14.1256C50.4072 14.1256 50.5111 14.487 50.5111 14.9127C50.5111 16.7871 49.1878 20.634 49.1878 23.0873C49.1878 25.7397 50.315 27.4947 52.6461 27.4947C55.2278 27.4947 57.8528 24.3338 59.6017 19.7121C60.1494 24.0306 61.3317 27.513 63.185 27.513C65.4572 27.513 69.4945 22.7289 71.9411 17.6631C73.2694 17.8586 74.6217 17.5409 75.7239 16.7749C75.1183 18.2882 74.8011 19.9014 74.7895 21.5314C74.7895 26.2328 77.0345 27.5498 78.9672 27.5498C81.0683 27.5498 82.7711 26.2971 84.0761 24.0919C84.505 26.0796 85.6072 27.5191 87.6256 27.5191C90.7867 27.5191 93.5339 24.2879 93.5339 21.6356C93.5461 20.9372 93.2461 20.5207 92.8967 20.5207ZM27.2711 24.9464C25.9939 24.9464 25.4944 23.66 25.4944 21.7427C25.4944 18.4134 27.7733 12.8606 30.1806 12.8606C31.2339 12.8606 31.6294 14.0858 31.6294 15.6172C31.6294 18.9893 29.4639 24.9464 27.2711 24.9464ZM71.0072 15.0077C70.2978 14.0794 69.9311 12.9347 69.9689 11.7672C69.9689 10.4104 70.465 9.26494 71.0594 9.26494C71.6533 9.26494 71.8372 9.84995 71.8372 10.6646C71.8339 12.0245 71.3472 14.0122 71.0072 15.0077ZM80.9089 24.9464C79.6317 24.9464 79.1328 23.4671 79.1328 21.7427C79.1328 18.5298 81.4117 12.8606 83.8372 12.8606C84.8906 12.8606 85.2645 14.0858 85.2645 15.6172C85.2645 18.9893 83.1356 24.9464 80.9089 24.9464Z" fill="#030F2B"/>
<path d="M92.8967 20.5207C92.8089 20.5244 92.725 20.5561 92.6567 20.6112C92.5883 20.6664 92.5395 20.742 92.5172 20.8269C91.5583 23.562 90.2628 25.1914 89.1972 25.1914C88.5844 25.1914 88.3361 24.5084 88.3361 23.4364C88.3361 20.7565 89.9411 15.0751 90.75 12.4839C90.8389 12.2147 90.8906 11.9343 90.9028 11.6508C90.9028 10.8974 90.4922 10.5268 89.4728 10.5268C88.3733 10.5268 87.1911 10.9556 86.0395 12.977C85.6411 11.2006 84.4406 10.4227 82.7589 10.4227C80.8172 10.4227 78.9428 11.6723 77.3989 13.6968C75.8556 15.7213 74.03 16.3859 72.6767 16.0582C73.6594 13.6539 74.0239 11.8591 74.0239 10.5237C74.0239 8.43183 72.9917 7.17 71.3195 7.17C68.7806 7.17 67.3167 9.59267 67.3167 12.1409C67.3167 14.1103 68.2111 16.1225 70.1739 17.1179C68.5261 20.8423 66.125 24.2083 65.2122 24.2083C64.0333 24.2083 63.6811 18.4411 63.7544 14.3154C63.7972 11.9479 63.9933 11.8285 63.9933 11.1118C63.9933 10.7014 63.7272 10.4196 62.655 10.4196C60.1589 10.4196 59.3872 12.5329 59.2678 14.9617C59.23 15.8838 59.0861 16.7986 58.8389 17.6876C57.7944 21.4119 55.6444 24.2358 54.2444 24.2358C53.5956 24.2358 53.4178 23.5865 53.4178 22.7351C53.4178 20.0551 54.9183 16.7075 54.9183 13.853C54.9183 11.7519 53.9994 10.4257 52.2628 10.4257C50.22 10.4257 47.5156 12.8576 44.9583 17.415C45.8006 13.9265 46.1467 10.5482 43.6533 10.5482C43.1133 10.556 42.5828 10.6936 42.1067 10.9494C41.9467 11.0242 41.8133 11.1454 41.7228 11.2973C41.6328 11.4492 41.5906 11.6247 41.6017 11.8009C41.8406 15.5161 38.6094 25.0291 35.5433 25.0291C34.9861 25.0291 34.7167 24.4166 34.7167 23.4518C34.7167 20.7657 36.315 15.0996 37.1206 12.5023C37.2161 12.2186 37.27 11.9224 37.28 11.6233C37.28 10.9127 36.8389 10.5482 35.8433 10.5482C34.75 10.5482 33.5617 10.9648 32.4161 12.9801C32.015 11.2037 30.8117 10.4257 29.1328 10.4257C26.3767 10.4257 23.3139 13.3384 21.9478 17.1363C20.1378 22.2052 16.4899 27.1026 11.5773 27.1026C7.12095 27.1026 4.76872 23.3936 4.76872 17.5344C4.76872 9.072 10.98 2.15928 15.5864 2.15928C17.7886 2.15928 18.8421 3.562 18.8421 5.71517C18.8421 8.32161 17.3873 9.53139 17.3873 10.5237C17.3873 10.83 17.6385 11.1363 18.1408 11.1363C20.1439 11.1363 22.4989 8.78406 22.4989 5.57428C22.4989 2.3645 19.8867 0 15.2771 0C7.66306 0 0 7.65694 0 17.4793C0 25.2894 3.85295 30 10.5176 30C15.0627 30 19.035 26.4656 21.1761 22.3431C21.4178 25.7611 22.9706 27.5498 25.3383 27.5498C27.4422 27.5498 29.1456 26.2971 30.4472 24.0919C30.9461 26.3982 32.2844 27.5253 34.0028 27.5253C35.9811 27.5253 37.6383 26.2726 39.2094 23.9418C39.185 25.7794 39.6017 27.4916 41.1883 27.4916C41.9356 27.4916 42.83 27.317 42.9889 26.6646C44.6583 19.7611 48.7839 14.1256 50.0333 14.1256C50.4072 14.1256 50.5111 14.487 50.5111 14.9127C50.5111 16.7871 49.1878 20.634 49.1878 23.0873C49.1878 25.7397 50.315 27.4947 52.6461 27.4947C55.2278 27.4947 57.8528 24.3338 59.6017 19.7121C60.1494 24.0306 61.3317 27.513 63.185 27.513C65.4572 27.513 69.4945 22.7289 71.9411 17.6631C73.2694 17.8586 74.6217 17.5409 75.7239 16.7749C75.1183 18.2882 74.8011 19.9014 74.7895 21.5314C74.7895 26.2328 77.0345 27.5498 78.9672 27.5498C81.0683 27.5498 82.7711 26.2971 84.0761 24.0919C84.505 26.0796 85.6072 27.5191 87.6256 27.5191C90.7867 27.5191 93.5339 24.2879 93.5339 21.6356C93.5461 20.9372 93.2461 20.5207 92.8967 20.5207ZM27.2711 24.9464C25.9939 24.9464 25.4944 23.66 25.4944 21.7427C25.4944 18.4134 27.7733 12.8606 30.1806 12.8606C31.2339 12.8606 31.6294 14.0858 31.6294 15.6172C31.6294 18.9893 29.4639 24.9464 27.2711 24.9464ZM71.0072 15.0077C70.2978 14.0794 69.9311 12.9347 69.9689 11.7672C69.9689 10.4104 70.465 9.26494 71.0594 9.26494C71.6533 9.26494 71.8372 9.84995 71.8372 10.6646C71.8339 12.0245 71.3472 14.0122 71.0072 15.0077ZM80.9089 24.9464C79.6317 24.9464 79.1328 23.4671 79.1328 21.7427C79.1328 18.5298 81.4117 12.8606 83.8372 12.8606C84.8906 12.8606 85.2645 14.0858 85.2645 15.6172C85.2645 18.9893 83.1356 24.9464 80.9089 24.9464Z" fill="#030F2B"/>
<path d="M92.8967 20.5207C92.8089 20.5244 92.725 20.5561 92.6567 20.6112C92.5883 20.6664 92.5395 20.742 92.5172 20.8269C91.5583 23.562 90.2628 25.1914 89.1972 25.1914C88.5844 25.1914 88.3361 24.5084 88.3361 23.4364C88.3361 20.7565 89.9411 15.0751 90.75 12.4839C90.8389 12.2147 90.8906 11.9343 90.9028 11.6508C90.9028 10.8974 90.4922 10.5268 89.4728 10.5268C88.3733 10.5268 87.1911 10.9556 86.0395 12.977C85.6411 11.2006 84.4406 10.4227 82.7589 10.4227C80.8172 10.4227 78.9428 11.6723 77.3989 13.6968C75.8556 15.7213 74.03 16.3859 72.6767 16.0582C73.6594 13.6539 74.0239 11.8591 74.0239 10.5237C74.0239 8.43183 72.9917 7.17 71.3195 7.17C68.7806 7.17 67.3167 9.59267 67.3167 12.1409C67.3167 14.1103 68.2111 16.1225 70.1739 17.1179C68.5261 20.8423 66.125 24.2083 65.2122 24.2083C64.0333 24.2083 63.6811 18.4411 63.7544 14.3154C63.7972 11.9479 63.9933 11.8285 63.9933 11.1118C63.9933 10.7014 63.7272 10.4196 62.655 10.4196C60.1589 10.4196 59.3872 12.5329 59.2678 14.9617C59.23 15.8838 59.0861 16.7986 58.8389 17.6876C57.7944 21.4119 55.6444 24.2358 54.2444 24.2358C53.5956 24.2358 53.4178 23.5865 53.4178 22.7351C53.4178 20.0551 54.9183 16.7075 54.9183 13.853C54.9183 11.7519 53.9994 10.4257 52.2628 10.4257C50.22 10.4257 47.5156 12.8576 44.9583 17.415C45.8006 13.9265 46.1467 10.5482 43.6533 10.5482C43.1133 10.556 42.5828 10.6936 42.1067 10.9494C41.9467 11.0242 41.8133 11.1454 41.7228 11.2973C41.6328 11.4492 41.5906 11.6247 41.6017 11.8009C41.8406 15.5161 38.6094 25.0291 35.5433 25.0291C34.9861 25.0291 34.7167 24.4166 34.7167 23.4518C34.7167 20.7657 36.315 15.0996 37.1206 12.5023C37.2161 12.2186 37.27 11.9224 37.28 11.6233C37.28 10.9127 36.8389 10.5482 35.8433 10.5482C34.75 10.5482 33.5617 10.9648 32.4161 12.9801C32.015 11.2037 30.8117 10.4257 29.1328 10.4257C26.3767 10.4257 23.3139 13.3384 21.9478 17.1363C20.1378 22.2052 16.4899 27.1026 11.5773 27.1026C7.12095 27.1026 4.76872 23.3936 4.76872 17.5344C4.76872 9.072 10.98 2.15928 15.5864 2.15928C17.7886 2.15928 18.8421 3.562 18.8421 5.71517C18.8421 8.32161 17.3873 9.53139 17.3873 10.5237C17.3873 10.83 17.6385 11.1363 18.1408 11.1363C20.1439 11.1363 22.4989 8.78406 22.4989 5.57428C22.4989 2.3645 19.8867 0 15.2771 0C7.66306 0 0 7.65694 0 17.4793C0 25.2894 3.85295 30 10.5176 30C15.0627 30 19.035 26.4656 21.1761 22.3431C21.4178 25.7611 22.9706 27.5498 25.3383 27.5498C27.4422 27.5498 29.1456 26.2971 30.4472 24.0919C30.9461 26.3982 32.2844 27.5253 34.0028 27.5253C35.9811 27.5253 37.6383 26.2726 39.2094 23.9418C39.185 25.7794 39.6017 27.4916 41.1883 27.4916C41.9356 27.4916 42.83 27.317 42.9889 26.6646C44.6583 19.7611 48.7839 14.1256 50.0333 14.1256C50.4072 14.1256 50.5111 14.487 50.5111 14.9127C50.5111 16.7871 49.1878 20.634 49.1878 23.0873C49.1878 25.7397 50.315 27.4947 52.6461 27.4947C55.2278 27.4947 57.8528 24.3338 59.6017 19.7121C60.1494 24.0306 61.3317 27.513 63.185 27.513C65.4572 27.513 69.4945 22.7289 71.9411 17.6631C73.2694 17.8586 74.6217 17.5409 75.7239 16.7749C75.1183 18.2882 74.8011 19.9014 74.7895 21.5314C74.7895 26.2328 77.0345 27.5498 78.9672 27.5498C81.0683 27.5498 82.7711 26.2971 84.0761 24.0919C84.505 26.0796 85.6072 27.5191 87.6256 27.5191C90.7867 27.5191 93.5339 24.2879 93.5339 21.6356C93.5461 20.9372 93.2461 20.5207 92.8967 20.5207ZM27.2711 24.9464C25.9939 24.9464 25.4944 23.66 25.4944 21.7427C25.4944 18.4134 27.7733 12.8606 30.1806 12.8606C31.2339 12.8606 31.6294 14.0858 31.6294 15.6172C31.6294 18.9893 29.4639 24.9464 27.2711 24.9464ZM71.0072 15.0077C70.2978 14.0794 69.9311 12.9347 69.9689 11.7672C69.9689 10.4104 70.465 9.26494 71.0594 9.26494C71.6533 9.26494 71.8372 9.84995 71.8372 10.6646C71.8339 12.0245 71.3472 14.0122 71.0072 15.0077ZM80.9089 24.9464C79.6317 24.9464 79.1328 23.4671 79.1328 21.7427C79.1328 18.5298 81.4117 12.8606 83.8372 12.8606C84.8906 12.8606 85.2645 14.0858 85.2645 15.6172C85.2645 18.9893 83.1356 24.9464 80.9089 24.9464Z" fill="#030F2B"/>
<path d="M92.8967 20.5207C92.8089 20.5244 92.725 20.5561 92.6567 20.6112C92.5883 20.6664 92.5395 20.742 92.5172 20.8269C91.5583 23.562 90.2628 25.1914 89.1972 25.1914C88.5844 25.1914 88.3361 24.5084 88.3361 23.4364C88.3361 20.7565 89.9411 15.0751 90.75 12.4839C90.8389 12.2147 90.8906 11.9343 90.9028 11.6508C90.9028 10.8974 90.4922 10.5268 89.4728 10.5268C88.3733 10.5268 87.1911 10.9556 86.0395 12.977C85.6411 11.2006 84.4406 10.4227 82.7589 10.4227C80.8172 10.4227 78.9428 11.6723 77.3989 13.6968C75.8556 15.7213 74.03 16.3859 72.6767 16.0582C73.6594 13.6539 74.0239 11.8591 74.0239 10.5237C74.0239 8.43183 72.9917 7.17 71.3195 7.17C68.7806 7.17 67.3167 9.59267 67.3167 12.1409C67.3167 14.1103 68.2111 16.1225 70.1739 17.1179C68.5261 20.8423 66.125 24.2083 65.2122 24.2083C64.0333 24.2083 63.6811 18.4411 63.7544 14.3154C63.7972 11.9479 63.9933 11.8285 63.9933 11.1118C63.9933 10.7014 63.7272 10.4196 62.655 10.4196C60.1589 10.4196 59.3872 12.5329 59.2678 14.9617C59.23 15.8838 59.0861 16.7986 58.8389 17.6876C57.7944 21.4119 55.6444 24.2358 54.2444 24.2358C53.5956 24.2358 53.4178 23.5865 53.4178 22.7351C53.4178 20.0551 54.9183 16.7075 54.9183 13.853C54.9183 11.7519 53.9994 10.4257 52.2628 10.4257C50.22 10.4257 47.5156 12.8576 44.9583 17.415C45.8006 13.9265 46.1467 10.5482 43.6533 10.5482C43.1133 10.556 42.5828 10.6936 42.1067 10.9494C41.9467 11.0242 41.8133 11.1454 41.7228 11.2973C41.6328 11.4492 41.5906 11.6247 41.6017 11.8009C41.8406 15.5161 38.6094 25.0291 35.5433 25.0291C34.9861 25.0291 34.7167 24.4166 34.7167 23.4518C34.7167 20.7657 36.315 15.0996 37.1206 12.5023C37.2161 12.2186 37.27 11.9224 37.28 11.6233C37.28 10.9127 36.8389 10.5482 35.8433 10.5482C34.75 10.5482 33.5617 10.9648 32.4161 12.9801C32.015 11.2037 30.8117 10.4257 29.1328 10.4257C26.3767 10.4257 23.3139 13.3384 21.9478 17.1363C20.1378 22.2052 16.4899 27.1026 11.5773 27.1026C7.12095 27.1026 4.76872 23.3936 4.76872 17.5344C4.76872 9.072 10.98 2.15928 15.5864 2.15928C17.7886 2.15928 18.8421 3.562 18.8421 5.71517C18.8421 8.32161 17.3873 9.53139 17.3873 10.5237C17.3873 10.83 17.6385 11.1363 18.1408 11.1363C20.1439 11.1363 22.4989 8.78406 22.4989 5.57428C22.4989 2.3645 19.8867 0 15.2771 0C7.66306 0 0 7.65694 0 17.4793C0 25.2894 3.85295 30 10.5176 30C15.0627 30 19.035 26.4656 21.1761 22.3431C21.4178 25.7611 22.9706 27.5498 25.3383 27.5498C27.4422 27.5498 29.1456 26.2971 30.4472 24.0919C30.9461 26.3982 32.2844 27.5253 34.0028 27.5253C35.9811 27.5253 37.6383 26.2726 39.2094 23.9418C39.185 25.7794 39.6017 27.4916 41.1883 27.4916C41.9356 27.4916 42.83 27.317 42.9889 26.6646C44.6583 19.7611 48.7839 14.1256 50.0333 14.1256C50.4072 14.1256 50.5111 14.487 50.5111 14.9127C50.5111 16.7871 49.1878 20.634 49.1878 23.0873C49.1878 25.7397 50.315 27.4947 52.6461 27.4947C55.2278 27.4947 57.8528 24.3338 59.6017 19.7121C60.1494 24.0306 61.3317 27.513 63.185 27.513C65.4572 27.513 69.4945 22.7289 71.9411 17.6631C73.2694 17.8586 74.6217 17.5409 75.7239 16.7749C75.1183 18.2882 74.8011 19.9014 74.7895 21.5314C74.7895 26.2328 77.0345 27.5498 78.9672 27.5498C81.0683 27.5498 82.7711 26.2971 84.0761 24.0919C84.505 26.0796 85.6072 27.5191 87.6256 27.5191C90.7867 27.5191 93.5339 24.2879 93.5339 21.6356C93.5461 20.9372 93.2461 20.5207 92.8967 20.5207ZM27.2711 24.9464C25.9939 24.9464 25.4944 23.66 25.4944 21.7427C25.4944 18.4134 27.7733 12.8606 30.1806 12.8606C31.2339 12.8606 31.6294 14.0858 31.6294 15.6172C31.6294 18.9893 29.4639 24.9464 27.2711 24.9464ZM71.0072 15.0077C70.2978 14.0794 69.9311 12.9347 69.9689 11.7672C69.9689 10.4104 70.465 9.26494 71.0594 9.26494C71.6533 9.26494 71.8372 9.84995 71.8372 10.6646C71.8339 12.0245 71.3472 14.0122 71.0072 15.0077ZM80.9089 24.9464C79.6317 24.9464 79.1328 23.4671 79.1328 21.7427C79.1328 18.5298 81.4117 12.8606 83.8372 12.8606C84.8906 12.8606 85.2645 14.0858 85.2645 15.6172C85.2645 18.9893 83.1356 24.9464 80.9089 24.9464Z" fill="#030F2B"/>
</g>
</svg>
