<svg width="113" height="24" viewBox="0 0 113 24" fill="none" xmlns="http://www.w3.org/2000/svg">
<g opacity="0.6">
<path d="M0 2.19914C0 0.984609 0.984713 0 2.19938 0H10.8024C12.0171 0 13.0018 0.984609 13.0018 2.19914V3.90061C13.0018 4.50788 12.5094 5.00018 11.9021 5.00018H1.09969C0.492356 5.00018 0 4.50788 0 3.90061V2.19914Z" fill="#030F2B"/>
<path d="M0 9.10397C0 8.49665 0.492356 8.00439 1.09969 8.00439H21.8039C23.0186 8.00439 24.0033 8.98896 24.0033 10.2035V15.9051C24.0033 16.5123 23.511 17.0047 22.9037 17.0047H2.19938C0.984713 17.0047 0 16.02 0 14.8055V9.10397Z" fill="#030F2B"/>
<path d="M11.0037 21.1032C11.0037 20.496 11.496 20.0037 12.1033 20.0037H22.9058C23.5131 20.0037 24.0054 20.496 24.0054 21.1032V21.8046C24.0054 23.0192 23.0207 24.0038 21.806 24.0038H13.203C11.9884 24.0038 11.0037 23.0192 11.0037 21.8046V21.1032Z" fill="#030F2B"/>
<path d="M37.5996 14.7458H39.9116L44.2048 21.7631H49.4615L44.7002 14.2504C47.3425 13.3423 48.8835 11.3059 48.8835 8.36129C48.8835 4.23345 45.994 2.00439 41.3427 2.00439H33.0034V21.7631H37.5996V14.7458ZM37.5996 11.0032V5.8846H41.0949C43.2692 5.8846 44.3699 6.82025 44.3699 8.44386C44.3699 10.04 43.2692 11.0032 41.0949 11.0032H37.5996Z" fill="#030F2B"/>
<path d="M57.3723 22.0577C60.2623 22.0577 62.9046 20.5993 63.978 17.8198L60.2901 16.6364C59.8773 17.9024 58.8039 18.5628 57.4275 18.5628C55.7487 18.5628 54.5654 17.4346 54.2624 15.4531H64.0879V14.2974C64.0879 10.1969 61.6934 6.94971 57.2902 6.94971C53.1064 6.94971 50.0239 10.1969 50.0239 14.49C50.0239 19.0031 52.9965 22.0577 57.3723 22.0577ZM57.235 10.3621C58.8586 10.3621 59.7121 11.4629 59.7395 12.7562H54.4002C54.8404 11.1602 55.8865 10.3621 57.235 10.3621Z" fill="#030F2B"/>
<path d="M66.5812 17.8792C66.5812 20.8513 68.1501 21.897 71.2873 21.897C72.3334 21.897 73.1591 21.8145 73.9296 21.7044V18.0994C73.4342 18.1544 73.1865 18.1819 72.6637 18.1819C71.5629 18.1819 70.9297 17.9618 70.9297 16.7509V10.8894H73.7645V7.2568H70.9297V3.23901H66.5812V7.2568H64.7373V10.8894H66.5812V17.8792Z" fill="#030F2B"/>
<path d="M89.6839 14.5175C89.6839 10.0043 86.6845 6.94971 82.4181 6.94971C78.1249 6.94971 75.1523 10.0043 75.1523 14.5175C75.1523 19.0307 78.1249 22.0577 82.4181 22.0577C86.6845 22.0577 89.6839 19.0307 89.6839 14.5175ZM79.5286 14.5175C79.5286 11.9857 80.6568 10.5548 82.4181 10.5548C84.18 10.5548 85.3081 11.9857 85.3081 14.5175C85.3081 17.0492 84.18 18.4802 82.4181 18.4802C80.6568 18.4802 79.5286 17.0492 79.5286 14.5175Z" fill="#030F2B"/>
<path d="M105.542 14.5175C105.542 10.0043 102.542 6.94971 98.2761 6.94971C93.9828 6.94971 91.0103 10.0043 91.0103 14.5175C91.0103 19.0307 93.9828 22.0577 98.2761 22.0577C102.542 22.0577 105.542 19.0307 105.542 14.5175ZM95.3865 14.5175C95.3865 11.9857 96.5147 10.5548 98.2761 10.5548C100.038 10.5548 101.166 11.9857 101.166 14.5175C101.166 17.0492 100.038 18.4802 98.2761 18.4802C96.5147 18.4802 95.3865 17.0492 95.3865 14.5175Z" fill="#030F2B"/>
<path d="M112.016 2.00439H107.613V21.7631H112.016V2.00439Z" fill="#030F2B"/>
</g>
</svg>
