<svg width="98" height="30" viewBox="0 0 98 30" fill="none" xmlns="http://www.w3.org/2000/svg">
<g opacity="0.6">
<path d="M50.9452 12.067C50.9607 12.5836 50.8698 13.0978 50.6789 13.5779C50.4874 14.058 50.2 14.4939 49.8337 14.8586C48.8534 15.8319 47.2626 16.3626 45.3502 16.3479C43.978 16.3252 42.5912 15.9916 41.8069 15.5095L42.3294 12.7602C43.367 13.3246 44.5177 13.6491 45.6974 13.7097C46.5898 13.7097 47.1913 13.2978 47.1913 12.6372C47.1913 12.0383 46.7687 11.6198 45.6889 11.0917C43.9815 10.2377 43.1268 9.15517 43.1268 7.87931C43.1268 5.36886 45.2648 3.6724 48.473 3.6724C50.1709 3.6724 51.2758 4.07246 51.8883 4.46568L51.3667 7.20953C50.8813 6.84459 49.6468 6.3354 48.3002 6.3354C47.3656 6.3354 46.7566 6.72702 46.7566 7.38263C46.7566 7.85294 47.2224 8.2743 48.2088 8.75511C49.4941 9.3972 50.9452 10.3478 50.9452 12.067ZM28.7087 3.69757C24.1895 3.69757 20.7845 6.99769 20.7845 11.374C20.7845 14.3963 22.7927 16.3479 25.908 16.3479C27.2405 16.3479 28.5353 16.1037 29.3694 15.6979L29.9402 12.6827C29.0147 13.1879 27.9786 13.4559 26.9239 13.4625C25.7849 13.4625 24.5629 12.807 24.5629 10.9772C24.5629 8.82108 26.0919 6.58336 28.6589 6.58336C29.3523 6.56261 30.0392 6.72606 30.6492 7.05714L31.2079 4.12557C30.408 3.83107 29.5609 3.68601 28.7087 3.69757ZM92.0767 13.5365C93.5731 13.54 95.0403 13.1259 96.3135 12.3409L95.7362 15.376C94.0172 16.2535 91.9983 16.3488 91.2095 16.3488C87.8545 16.3488 85.9366 14.4829 85.9366 11.2252C85.9412 9.33505 86.611 7.50679 87.8284 6.061C88.4655 5.30671 89.2609 4.70179 90.1578 4.28907C91.0547 3.8764 92.0315 3.66597 93.0189 3.6728C95.5568 3.6728 97.2501 5.14743 97.2501 7.33389C97.2667 7.79143 97.1888 8.24752 97.0205 8.67336C96.8526 9.09919 96.5979 9.48564 96.2728 9.80822C95.0609 10.9896 92.0732 11.6518 89.3519 11.1174C89.2222 12.6505 90.3764 13.5365 92.0767 13.5365ZM89.7463 8.77787C91.8627 8.79525 93.053 8.5812 93.5726 8.06678C94.1348 7.50794 93.959 6.31058 92.5727 6.31058C91.0125 6.31058 90.0192 7.58949 89.7463 8.77787ZM84.1122 3.69757C79.5926 3.69757 76.1879 6.99769 76.1879 11.374C76.1879 14.3963 78.1957 16.3479 81.311 16.3479C82.6435 16.3479 83.9389 16.1037 84.7724 15.6979L85.3437 12.6827C84.4182 13.188 83.3816 13.4559 82.3275 13.4625C81.1879 13.4625 79.9659 12.8071 79.9659 10.9772C79.9659 8.82108 81.4954 6.58336 84.062 6.58336C84.7559 6.56261 85.4422 6.72606 86.0522 7.05714L86.6109 4.12562C85.811 3.83107 84.9644 3.68601 84.1122 3.69757ZM75.5945 9.2947L74.2941 16.1004H70.8497L71.2974 13.7579C70.814 15.2178 69.6373 16.3731 67.6631 16.3731C65.2668 16.3731 64.1835 14.2459 64.1825 12.117C64.181 9.69858 65.1312 7.30364 66.7225 5.71099C67.3727 5.05467 68.1485 4.53593 69.0037 4.18571C69.8583 3.8355 70.7753 3.66094 71.6994 3.67245C73.1625 3.67828 74.2449 4.10185 74.9232 4.92388C75.9271 6.14044 75.8447 7.96674 75.5945 9.2947ZM72.2782 7.72893C72.236 6.87077 71.7893 6.4081 70.9884 6.4081C69.2926 6.4081 67.8229 9.33565 67.8244 11.3715C67.8249 12.6435 68.2962 13.4357 69.1162 13.4357C70.4286 13.4357 71.5582 12.0636 71.9471 10.0545C72.0792 9.37549 72.3023 8.26093 72.2782 7.72893ZM20.1912 9.2947L18.8908 16.1004H15.4465L15.8941 13.7579C15.4111 15.2178 14.2342 16.3731 12.2598 16.3731C9.86359 16.3731 8.78068 14.2459 8.77943 12.117C8.77777 9.69858 9.72792 7.30364 11.3193 5.71099C11.9697 5.05467 12.7455 4.53593 13.6004 4.18571C14.4555 3.8355 15.3722 3.66094 16.2962 3.67245C17.7594 3.67828 18.8418 4.10185 19.5201 4.92388C20.5241 6.14044 20.4417 7.96674 20.1912 9.2947ZM16.8752 7.72893C16.8331 6.87077 16.3865 6.4081 15.5855 6.4081C13.8894 6.4081 12.4199 9.33565 12.4212 11.3715C12.4217 12.6435 12.8931 13.4357 13.7134 13.4357C15.0253 13.4357 16.1553 12.0636 16.544 10.0545C16.6764 9.37549 16.8994 8.26093 16.8752 7.72893ZM63.9419 8.30038C63.9419 11.2572 62.5224 14.2888 59.9634 15.6529C59.1599 16.0994 58.261 16.3464 57.342 16.3732C56.0612 16.3731 55.3432 15.8943 54.9337 15.156L54.0177 19.9972H50.4115L53.473 3.89645H56.6491L56.2778 5.85087C57.1747 4.54558 58.5037 3.67245 60.0081 3.67245C62.3943 3.67245 63.9419 5.48111 63.9419 8.30038ZM60.1915 8.57352C60.1915 8.00041 60.0563 6.60854 58.7353 6.60854C57.3923 6.60854 56.2587 8.13864 55.819 10.4595C55.6688 11.253 55.2477 13.6357 56.9069 13.6357C58.8007 13.6357 60.1915 10.9471 60.1915 8.57352ZM5.02362 6.6019L5.53764 3.89645H2.36192L0 16.3151H3.60652L4.5804 11.1948C5.15466 8.17542 6.8869 6.96719 9.35208 7.34042L10.0564 3.63617C9.01247 3.53995 7.96463 3.7746 7.0614 4.30686C6.15818 4.83912 5.44524 5.64205 5.02362 6.6019ZM33.9494 16.1004L35.1915 9.56598L37.7485 16.1004H41.6265L38.981 9.51407L43.7951 3.89645H39.8583L35.2131 9.45247L37.0099 0H33.4288L30.3678 16.1004H33.9494ZM75.4437 24.6376C75.4437 26.3966 74.2258 27.899 72.4681 27.899C71.1663 27.899 70.3613 26.9988 70.3613 25.7716C70.3613 24.024 71.5793 22.5102 73.3369 22.5102C74.7237 22.5102 75.4437 23.5056 75.4437 24.6376ZM71.632 25.7395C71.632 26.4483 72.0024 26.9471 72.6375 26.9471C73.5595 26.9471 74.173 25.6764 74.173 24.6479C74.173 24.1192 73.9298 23.4621 73.1882 23.4621C72.2043 23.4622 71.632 24.7762 71.632 25.7395ZM83.8354 24.6376C83.8354 26.3966 82.6174 27.899 80.8593 27.899C79.5579 27.899 78.7529 26.9988 78.7529 25.7716C78.7529 24.024 79.9704 22.5102 81.7285 22.5102C83.1153 22.5102 83.8354 23.5056 83.8354 24.6376ZM80.0232 25.7395C80.0232 26.4483 80.394 26.9471 81.0291 26.9471C81.9511 26.9471 82.5646 25.6764 82.5646 24.6479C82.5646 24.1192 82.3214 23.4621 81.5798 23.4621C80.5955 23.4622 80.0232 24.7762 80.0232 25.7395ZM77.2888 20.9386L75.9869 27.7831H77.2164L78.5273 20.9386H77.2888ZM57.4119 22.5206C56.9777 22.5175 56.5476 22.6014 56.1467 22.7674C55.7452 22.9334 55.3814 23.1781 55.0764 23.487C54.7714 23.796 54.5317 24.1629 54.371 24.5661C54.2102 24.9694 54.1318 25.4007 54.1403 25.8348C54.1403 27.063 54.9337 27.8887 56.226 27.8887C56.7501 27.9 57.2702 27.7924 57.7465 27.574L57.95 26.5039C57.5304 26.753 57.0526 26.8873 56.5647 26.8932C55.8763 26.8932 55.4317 26.4587 55.4317 25.6868C55.4317 24.6065 56.1838 23.5159 57.3696 23.5159C57.7018 23.5101 58.0299 23.5931 58.3198 23.7564L58.5148 22.7308C58.1645 22.5881 57.7897 22.5166 57.4119 22.5206ZM50.3678 26.3966C50.2573 26.1693 50.2101 25.9168 50.2302 25.6651C52.2209 25.7075 53.6072 25.2833 53.6072 23.9609C53.6072 23.0917 52.9615 22.5102 51.9446 22.5102C50.1658 22.5102 49.0227 24.2041 49.0227 25.7602C49.0227 27.0205 49.7106 27.899 51.1406 27.899C51.821 27.9055 52.4912 27.7392 53.0897 27.4156L53.3007 26.3054C52.7601 26.7105 52.1018 26.9281 51.426 26.9254C51.2185 26.9426 51.0095 26.9024 50.8231 26.8091C50.6361 26.7159 50.4789 26.5732 50.3678 26.3966ZM51.7863 23.4311C52.1782 23.4311 52.4425 23.6319 52.4425 23.9609C52.4425 24.5848 51.627 24.7545 50.3563 24.7432C50.5055 24.1192 51.0135 23.4311 51.7863 23.4311ZM69.5106 23.9278C69.5106 22.9541 68.9389 22.5102 68.1977 22.5102C67.8179 22.5152 67.445 22.6171 67.1154 22.8064C66.7858 22.9956 66.5099 23.2659 66.3145 23.5917L66.5054 22.595H65.3935L64.4066 27.7831H65.6357L66.0919 25.4012C66.3145 24.1927 67.0225 23.5159 67.5832 23.5159C68.0706 23.5159 68.2299 23.8222 68.2299 24.2568C68.2279 24.4631 68.2078 24.6688 68.1691 24.8714L67.6154 27.7831H68.8444L69.4202 24.7762C69.4755 24.4966 69.5056 24.2127 69.5106 23.9278ZM62.3702 22.5102C62.038 22.512 61.7109 22.5898 61.4135 22.7376C61.1165 22.8855 60.8567 23.0996 60.6553 23.3633L61.1195 20.9386H59.881L58.5791 27.7831H59.8081L60.2648 25.4012C60.4869 24.1927 61.1949 23.5159 61.7556 23.5159C62.243 23.5159 62.4023 23.8222 62.4023 24.2568C62.4003 24.4631 62.3802 24.6688 62.3415 24.8714L61.7878 27.7831H63.0168L63.5931 24.7762C63.6479 24.4966 63.6781 24.2127 63.6831 23.9278C63.6831 22.9541 63.1113 22.5102 62.3702 22.5102ZM48.0575 21.2988H46.8586L46.5953 22.6261H45.907L45.7271 23.5791H46.416L45.9713 25.8772C45.904 26.1905 45.8683 26.5097 45.8648 26.8301C45.8648 27.423 46.2361 27.8887 47.0827 27.8887C47.3551 27.8983 47.6269 27.8626 47.8877 27.7831L48.0736 26.8054C47.9113 26.8376 47.746 26.8532 47.5802 26.8518C47.5174 26.8601 47.4536 26.8536 47.3938 26.8329C47.334 26.8121 47.2797 26.7778 47.236 26.7325C47.1918 26.6872 47.1586 26.6322 47.1395 26.5719C47.1199 26.5116 47.1154 26.4477 47.1249 26.3852C47.132 26.1391 47.1636 25.8943 47.2199 25.6547L47.6229 23.5791H48.7775L48.968 22.6261H47.8128L48.0575 21.2988ZM89.483 29.7103C90.4277 30.1473 91.3587 29.9539 92.0335 28.7463V28.7443L95.4834 22.595H94.1705L92.2114 26.4338L91.7356 22.595H90.4432L91.3622 27.6446L90.9598 28.4507C90.5985 29.0683 89.9679 28.8668 89.6745 28.704L89.483 29.7103ZM87.8048 22.5102C85.6121 22.5102 84.4885 24.4491 84.4885 26.0807C84.4885 27.0024 84.9443 27.9029 86.0462 27.9029C86.3853 27.9011 86.719 27.8162 87.0179 27.6557C87.3164 27.4952 87.5717 27.264 87.7606 26.9822L87.6616 27.4334C87.4079 28.6306 86.7933 29.0113 85.9884 29.0113C85.5186 29.0171 85.0543 28.9118 84.6333 28.704L84.4418 29.7103C84.9227 29.9129 85.4412 30.0105 85.9628 29.9964C86.6511 30.0302 87.3305 29.8283 87.8887 29.4241C88.4771 28.9379 88.7665 28.1329 88.959 27.1271L89.4257 24.7882C89.4926 24.4961 89.5277 24.1978 89.5318 23.8983C89.5318 22.966 88.8856 22.5102 87.8048 22.5102ZM88.1967 24.7245L88.1018 25.2013C87.8897 26.2396 87.2325 26.8965 86.5969 26.8965C86.0251 26.8965 85.7814 26.4198 85.7814 25.8582C85.7814 24.8412 86.4914 23.4533 87.5717 23.4533C87.6621 23.4424 87.7535 23.4516 87.84 23.4802C87.9264 23.5089 88.0053 23.5563 88.0711 23.6191C88.1369 23.682 88.1882 23.7585 88.2208 23.8434C88.2535 23.9284 88.2671 24.0195 88.2605 24.1102C88.2635 24.3168 88.2419 24.523 88.1967 24.7245ZM96.8572 26.7197C96.8742 26.5692 96.8597 26.4168 96.813 26.2726C96.7667 26.1283 96.6898 25.9957 96.5883 25.8836C96.4863 25.7714 96.3617 25.6824 96.2225 25.6223C96.0839 25.5623 95.9331 25.5326 95.7819 25.5354C95.4598 25.5416 95.1508 25.6654 94.9136 25.8835C94.676 26.1017 94.5267 26.3991 94.4936 26.7197C94.476 26.8699 94.4911 27.0221 94.5378 27.1661C94.584 27.31 94.6609 27.4423 94.7629 27.5541C94.8649 27.6658 94.9895 27.7545 95.1282 27.814C95.2674 27.8734 95.4176 27.9024 95.5688 27.899C95.8909 27.8948 96.1999 27.7723 96.4376 27.5548C96.6753 27.3374 96.8245 27.0401 96.8572 26.7197ZM96.6888 26.7048C96.6587 26.9828 96.5286 27.2403 96.3225 27.4291C96.116 27.6179 95.8482 27.7251 95.5688 27.7305C95.4412 27.7333 95.3146 27.7087 95.197 27.6584C95.0799 27.6081 94.9749 27.5332 94.889 27.4389C94.8031 27.3445 94.7383 27.2328 94.6991 27.1113C94.6599 26.9898 94.6473 26.8613 94.6619 26.7346C94.692 26.4567 94.8222 26.1991 95.0282 26.0104C95.2347 25.8215 95.5025 25.7144 95.7819 25.7089C95.9095 25.7065 96.0356 25.7314 96.1532 25.7818C96.2703 25.8323 96.3748 25.9072 96.4607 26.0015C96.5466 26.0957 96.6115 26.2072 96.6507 26.3285C96.6898 26.4498 96.7029 26.5782 96.6888 26.7048ZM95.8713 26.8634L96.0592 27.4134H95.8759L95.693 26.8782H95.4302L95.3312 27.4134H95.1573L95.4201 26.021H95.8759C95.9236 26.0196 95.9708 26.0276 96.0155 26.0445C96.0598 26.0615 96.1005 26.087 96.1351 26.1197C96.1693 26.1524 96.1974 26.1916 96.2165 26.235C96.2361 26.2785 96.2467 26.3253 96.2477 26.3728C96.2467 26.4844 96.209 26.5925 96.1412 26.681C96.0733 26.7695 95.9784 26.8335 95.8713 26.8634ZM95.8759 26.1895H95.5588L95.4598 26.7098H95.7472C95.8246 26.7061 95.899 26.6769 95.9578 26.6267C96.0171 26.5765 96.0583 26.5082 96.0743 26.4323C96.0804 26.4029 96.0804 26.3724 96.0733 26.3431C96.0663 26.3139 96.0527 26.2865 96.0336 26.2632C96.0145 26.2399 95.9904 26.2211 95.9633 26.2084C95.9361 26.1956 95.906 26.1892 95.8759 26.1895Z" fill="#030F2B"/>
</g>
</svg>
