<svg width="205" height="206" viewBox="0 0 205 206" fill="none" xmlns="http://www.w3.org/2000/svg">
<path d="M196.837 90.2289L114.794 8.18519C108.018 1.40938 97.0076 1.40938 90.2318 8.18519L8.18868 90.2289C1.41292 97.0047 1.41292 108.015 8.18868 114.791L90.2318 196.835C97.0076 203.611 108.018 203.611 114.794 196.835L196.837 114.791C203.613 108.015 203.613 97.0047 196.837 90.2289ZM109.543 156.491C105.647 160.387 99.3791 160.387 95.4831 156.491L48.5327 109.54C44.6366 105.644 44.6366 99.3762 48.5327 95.4801L95.4831 48.5295C99.3791 44.6334 105.647 44.6334 109.543 48.5295L156.493 95.4801C160.389 99.3762 160.389 105.644 156.493 109.54L109.543 156.491Z" fill="url(#paint0_linear_1_559)"/>
<path d="M142.041 97.3664L107.654 62.9792C104.802 60.1277 100.201 60.1277 97.3774 62.9792L62.9904 97.3664C60.1389 100.218 60.1389 104.82 62.9904 107.643L97.3774 142.03C100.229 144.882 104.831 144.882 107.654 142.03L142.013 107.671C144.864 104.82 144.864 100.19 142.041 97.3664Z" fill="#3CEDB7"/>
<g opacity="0.24">
<path d="M162.592 14.8221C165.98 11.4342 165.98 5.92883 162.592 2.54093C159.204 -0.846976 153.699 -0.846976 150.311 2.54093L134.755 18.0971L147.008 30.4064L162.592 14.8221Z" fill="#030F2B"/>
<path d="M182.526 34.7862C185.913 31.3983 185.913 25.8929 182.526 22.505C179.138 19.1171 173.632 19.1171 170.244 22.505L154.688 38.0612L166.969 50.3423L182.526 34.7862Z" fill="#030F2B"/>
<path d="M202.459 54.7151C205.847 51.3272 205.847 45.8218 202.459 42.4339C199.071 39.046 193.566 39.046 190.178 42.4339L174.622 57.9901L186.903 70.2712L202.459 54.7151Z" fill="#030F2B"/>
</g>
<g opacity="0.24">
<path d="M190.17 162.583C193.558 165.97 199.063 165.97 202.451 162.583C205.839 159.195 205.839 153.689 202.451 150.301L186.895 134.745L174.614 147.026L190.17 162.583Z" fill="#030F2B"/>
<path d="M170.244 182.521C173.632 185.909 179.138 185.909 182.526 182.521C185.913 179.133 185.913 173.627 182.526 170.24L166.969 154.683L154.688 166.965L170.244 182.521Z" fill="#030F2B"/>
<path d="M150.31 202.442C153.698 205.83 159.203 205.83 162.591 202.442C165.979 199.054 165.979 193.549 162.591 190.161L147.007 174.605L134.726 186.886L150.31 202.442Z" fill="#030F2B"/>
</g>
<g opacity="0.24">
<path d="M42.4331 190.203C39.0452 193.591 39.0452 199.096 42.4331 202.484C45.821 205.872 51.3263 205.872 54.7141 202.484L70.2702 186.928L57.9891 174.647L42.4331 190.203Z" fill="#030F2B"/>
<path d="M22.4995 170.24C19.1116 173.627 19.1116 179.133 22.4995 182.521C25.8874 185.909 31.3927 185.909 34.7806 182.521L50.3366 166.965L38.0555 154.683L22.4995 170.24Z" fill="#030F2B"/>
<path d="M2.57011 150.301C-0.817772 153.689 -0.817772 159.195 2.57011 162.583C5.95799 165.97 11.4633 165.97 14.8512 162.583L30.4072 147.026L18.1261 134.745L2.57011 150.301Z" fill="#030F2B"/>
</g>
<g opacity="0.24">
<path d="M14.822 42.4334C11.4341 39.0455 5.92879 39.0455 2.54091 42.4334C-0.84697 45.8213 -0.84697 51.3266 2.54091 54.7145L18.0969 70.2706L30.378 57.9895L14.822 42.4334Z" fill="#030F2B"/>
<path d="M34.7806 22.5041C31.3927 19.1162 25.8874 19.1162 22.4995 22.5041C19.1116 25.892 19.1116 31.3974 22.4995 34.7853L38.0555 50.3414L50.3366 38.0602L34.7806 22.5041Z" fill="#030F2B"/>
<path d="M54.7141 2.56595C51.3263 -0.821951 45.821 -0.821951 42.4331 2.56595C39.0452 5.95386 39.0452 11.4592 42.4331 14.8471L57.9891 30.4032L70.2702 18.1221L54.7141 2.56595Z" fill="#030F2B"/>
</g>
<defs>
<linearGradient id="paint0_linear_1_559" x1="3.10686" y1="102.51" x2="201.919" y2="102.51" gradientUnits="userSpaceOnUse">
<stop stop-color="#5550FF"/>
<stop offset="1" stop-color="#AD4BFF"/>
</linearGradient>
</defs>
</svg>
