<svg width="173" height="48" viewBox="0 0 173 48" fill="none" xmlns="http://www.w3.org/2000/svg">
<path d="M160.783 36.9513C159.766 36.9513 159.046 36.8649 158.623 36.6921C158.201 36.5289 157.99 36.4473 157.99 36.4473V33.7689L159.473 33.8265C160.116 33.8649 160.634 33.8313 161.028 33.7257C161.422 33.6297 161.719 33.5001 161.921 33.3369C162.123 33.1737 162.267 33.0009 162.353 32.8185C162.449 32.6457 162.516 32.5065 162.555 32.4009L162.828 31.5801L157.039 17.3096H161.201L164.772 27.0153L168.372 17.3096H172.491L166.457 32.2857C165.939 33.5529 165.387 34.5225 164.801 35.1945C164.225 35.8665 163.601 36.3273 162.929 36.5769C162.267 36.8265 161.551 36.9513 160.783 36.9513Z" fill="white"/>
<path d="M148.307 32.2005V20.234H145.556V17.3108H148.307V15.1652C148.307 13.9652 148.662 13.0339 149.373 12.3715C150.083 11.7091 151.081 11.3779 152.368 11.3779H155.781L155.809 14.1716H153.837C153.309 14.1716 152.944 14.306 152.742 14.5748C152.541 14.834 152.44 15.266 152.44 15.8708V17.3108H155.665V20.234H152.526V32.2005H148.307Z" fill="white"/>
<path d="M136.988 32.4872C135.529 32.4872 134.257 32.1752 133.172 31.5512C132.097 30.9272 131.262 30.044 130.666 28.9016C130.081 27.7592 129.788 26.4056 129.788 24.8408C129.788 23.2759 130.081 21.9079 130.666 20.7367C131.262 19.5655 132.097 18.6535 133.172 18.0007C134.257 17.3479 135.534 17.0215 137.003 17.0215C138.471 17.0215 139.743 17.3431 140.819 17.9863C141.894 18.6199 142.724 19.5223 143.31 20.6935C143.896 21.8647 144.188 23.2471 144.188 24.8408C144.188 26.3384 143.9 27.6632 143.324 28.8152C142.758 29.9576 141.937 30.8552 140.862 31.508C139.796 32.1608 138.505 32.4872 136.988 32.4872ZM137.003 29.3624C137.742 29.3624 138.337 29.1464 138.788 28.7144C139.239 28.2824 139.566 27.716 139.767 27.0152C139.969 26.3048 140.07 25.532 140.07 24.6968C140.07 23.9095 139.979 23.1655 139.796 22.4647C139.614 21.7639 139.297 21.1975 138.846 20.7655C138.395 20.3335 137.78 20.1175 137.003 20.1175C136.263 20.1175 135.663 20.3239 135.203 20.7367C134.751 21.1399 134.42 21.6919 134.209 22.3927C133.998 23.0839 133.892 23.8519 133.892 24.6968C133.892 25.4744 133.988 26.2232 134.18 26.9432C134.372 27.6536 134.694 28.2344 135.145 28.6856C135.596 29.1368 136.215 29.3624 137.003 29.3624Z" fill="white"/>
<path d="M126.639 32.4586C125.545 32.4586 124.676 32.329 124.033 32.0698C123.39 31.8106 122.914 31.4698 122.607 31.0474C122.3 30.6154 122.103 30.1402 122.017 29.6217C121.93 29.0937 121.887 28.5609 121.887 28.0233V10.8008H126.006V27.5049C126.006 28.0521 126.121 28.4985 126.351 28.8441C126.591 29.1801 127.038 29.3865 127.69 29.4633L128.396 29.5065V32.0986C128.108 32.1946 127.815 32.2762 127.518 32.3434C127.22 32.4202 126.927 32.4586 126.639 32.4586Z" fill="white"/>
<path d="M104.815 32.1994V10.8008H108.991V19.4553C109.231 19.1097 109.533 18.7689 109.898 18.4328C110.263 18.0872 110.719 17.7992 111.266 17.5688C111.813 17.3384 112.48 17.2232 113.268 17.2232C114.218 17.2232 115.082 17.4104 115.86 17.7848C116.647 18.1496 117.276 18.6825 117.746 19.3833C118.226 20.0841 118.466 20.9385 118.466 21.9465V32.1994H114.247V22.5657C114.247 21.8937 114.002 21.3801 113.512 21.0249C113.032 20.6601 112.447 20.4777 111.756 20.4777C111.304 20.4777 110.868 20.5593 110.445 20.7225C110.023 20.8857 109.677 21.1353 109.408 21.4713C109.149 21.7977 109.019 22.2057 109.019 22.6953V32.1994H104.815Z" fill="white"/>
<path d="M95.6284 32.4872C94.246 32.4872 93.0123 32.18 91.9275 31.5656C90.8427 30.9512 89.9883 30.0728 89.3642 28.9304C88.7498 27.7784 88.4426 26.4056 88.4426 24.812C88.4426 23.2759 88.7402 21.9223 89.3354 20.7511C89.9307 19.5799 90.7659 18.6679 91.8411 18.0151C92.9259 17.3527 94.1884 17.0215 95.6284 17.0215C96.8764 17.0215 97.9517 17.2759 98.8541 17.7847C99.7661 18.2935 100.481 18.9799 101 19.8439C101.528 20.7079 101.83 21.6727 101.907 22.7383H98.4077C98.3405 22.3447 98.2013 21.9559 97.99 21.5719C97.7788 21.1783 97.4812 20.8567 97.0972 20.6071C96.7132 20.3479 96.2332 20.2183 95.6572 20.2183C94.678 20.2183 93.8812 20.5975 93.2667 21.3559C92.6619 22.1047 92.3595 23.2471 92.3595 24.7832C92.3595 26.2328 92.6571 27.3848 93.2523 28.2392C93.8476 29.084 94.678 29.5064 95.7436 29.5064C96.31 29.5064 96.7804 29.3672 97.1548 29.0888C97.5388 28.8104 97.8364 28.4792 98.0477 28.0952C98.2589 27.7016 98.3933 27.3368 98.4509 27.0008H101.864C101.797 28.028 101.499 28.9592 100.971 29.7944C100.443 30.62 99.7229 31.2776 98.8109 31.7672C97.9084 32.2472 96.8476 32.4872 95.6284 32.4872Z" fill="white"/>
<path d="M79.3943 32.4872C77.9159 32.4872 76.615 32.18 75.4918 31.5656C74.3782 30.9416 73.5094 30.0632 72.8854 28.9304C72.2613 27.7976 71.9493 26.4632 71.9493 24.9272C71.9493 23.4391 72.2325 22.0999 72.799 20.9095C73.375 19.7095 74.2006 18.7639 75.2758 18.0727C76.351 17.3719 77.6519 17.0215 79.1783 17.0215C80.6951 17.0215 81.9672 17.3431 82.9944 17.9863C84.0216 18.6199 84.7992 19.5079 85.3273 20.6503C85.8553 21.7831 86.1193 23.0935 86.1193 24.5815V25.7192H76.111C76.111 26.4776 76.2358 27.14 76.4854 27.7064C76.7351 28.2632 77.0951 28.6952 77.5655 29.0024C78.0455 29.3 78.6215 29.4488 79.2935 29.4488C80.0135 29.4488 80.6423 29.2952 81.18 28.988C81.7176 28.6808 82.0968 28.1768 82.3176 27.476H86.1049C85.9321 28.532 85.5097 29.4344 84.8376 30.1832C84.1656 30.932 83.3496 31.5032 82.3896 31.8968C81.4296 32.2904 80.4311 32.4872 79.3943 32.4872ZM76.111 23.2135H82.188C82.188 22.6183 82.0728 22.0711 81.8424 21.5719C81.6216 21.0727 81.2856 20.6791 80.8343 20.3911C80.3927 20.1031 79.8359 19.9591 79.1639 19.9591C78.5207 19.9591 77.9687 20.1175 77.5079 20.4343C77.0567 20.7415 76.7063 21.1447 76.4566 21.6439C76.2166 22.1431 76.1014 22.6663 76.111 23.2135Z" fill="white"/>
<path d="M62.0411 32.2005V15.122H55.7482V11.3779H72.4094V15.122H66.2604V32.2005H62.0411Z" fill="white"/>
<path d="M46.0849 21.1246L26.8764 1.91634C25.29 0.329971 22.7121 0.329971 21.1257 1.91634L1.91718 21.1246C0.330789 22.711 0.330789 25.2888 1.91718 26.8752L21.1257 46.0834C22.7121 47.6698 25.29 47.6698 26.8764 46.0834L46.0849 26.8752C47.6713 25.2888 47.6713 22.711 46.0849 21.1246ZM25.6469 36.638C24.7348 37.5501 23.2674 37.5501 22.3552 36.638L11.3628 25.6457C10.4506 24.7336 10.4506 23.2662 11.3628 22.354L22.3552 11.3618C23.2674 10.4497 24.7348 10.4497 25.6469 11.3618L36.6393 22.354C37.5515 23.2662 37.5515 24.7336 36.6393 25.6457L25.6469 36.638Z" fill="url(#paint0_linear_1_900)"/>
<path d="M33.2552 22.7966L25.2043 14.7458C24.5367 14.0782 23.4593 14.0782 22.7983 14.7458L14.7473 22.7966C14.0797 23.4642 14.0797 24.5416 14.7473 25.2026L22.7983 33.2534C23.4659 33.921 24.5433 33.921 25.2043 33.2534L33.2486 25.2092C33.9162 24.5416 33.9162 23.4576 33.2552 22.7966Z" fill="#3CEDB7"/>
<g opacity="0.24">
<path d="M38.0681 3.47018C38.8613 2.677 38.8613 1.38807 38.0681 0.594888C37.2749 -0.198296 35.9859 -0.198296 35.1927 0.594888L31.5507 4.23692L34.4194 7.11882L38.0681 3.47018Z" fill="white"/>
<path d="M42.7346 8.14401C43.5278 7.35082 43.5278 6.0619 42.7346 5.26872C41.9415 4.47553 40.6525 4.47553 39.8593 5.26872L36.2172 8.91075L39.0926 11.786L42.7346 8.14401Z" fill="white"/>
<path d="M47.4012 12.81C48.1944 12.0168 48.1944 10.7279 47.4012 9.93473C46.608 9.14155 45.3191 9.14155 44.5259 9.93473L40.8838 13.5768L43.7591 16.4521L47.4012 12.81Z" fill="white"/>
</g>
<g opacity="0.24">
<path d="M44.5235 38.0642C45.3167 38.8574 46.6056 38.8574 47.3988 38.0642C48.192 37.271 48.192 35.9821 47.3988 35.1889L43.7567 31.5469L40.8814 34.4222L44.5235 38.0642Z" fill="white"/>
<path d="M39.8586 42.7331C40.6518 43.5263 41.9407 43.5263 42.7339 42.7331C43.5271 41.94 43.5271 40.651 42.7339 39.8579L39.0919 36.2158L36.2165 39.0911L39.8586 42.7331Z" fill="white"/>
<path d="M35.1911 47.3972C35.9843 48.1904 37.2733 48.1904 38.0664 47.3972C38.8596 46.604 38.8596 45.3151 38.0664 44.5219L34.4178 40.8799L31.5424 43.7552L35.1911 47.3972Z" fill="white"/>
</g>
<g opacity="0.24">
<path d="M9.93459 44.5297C9.14139 45.3229 9.14139 46.6118 9.93459 47.405C10.7278 48.1982 12.0167 48.1982 12.8099 47.405L16.452 43.763L13.5767 40.8877L9.93459 44.5297Z" fill="white"/>
<path d="M5.26717 39.8579C4.47397 40.651 4.47397 41.94 5.26717 42.7331C6.06036 43.5263 7.34931 43.5263 8.1425 42.7331L11.7846 39.0911L8.90926 36.2158L5.26717 39.8579Z" fill="white"/>
<path d="M0.601427 35.1889C-0.191768 35.9821 -0.191768 37.271 0.601427 38.0642C1.39462 38.8574 2.68357 38.8574 3.47676 38.0642L7.11885 34.4222L4.24352 31.5469L0.601427 35.1889Z" fill="white"/>
</g>
<g opacity="0.24">
<path d="M3.47023 9.93571C2.67703 9.14252 1.38809 9.14252 0.594896 9.93571C-0.198299 10.7289 -0.198299 12.0178 0.594896 12.811L4.23699 16.453L7.11232 13.5777L3.47023 9.93571Z" fill="white"/>
<path d="M8.14351 5.26969C7.35031 4.47651 6.06137 4.47651 5.26818 5.26969C4.47498 6.06288 4.47498 7.3518 5.26818 8.14498L8.91026 11.787L11.7856 8.91173L8.14351 5.26969Z" fill="white"/>
<path d="M12.8101 0.6027C12.0169 -0.190483 10.7279 -0.190483 9.93474 0.6027C9.14154 1.39588 9.14154 2.68481 9.93474 3.47799L13.5768 7.12002L16.4522 4.24473L12.8101 0.6027Z" fill="white"/>
</g>
<defs>
<linearGradient id="paint0_linear_1_900" x1="0.727386" y1="23.9999" x2="47.2747" y2="23.9999" gradientUnits="userSpaceOnUse">
<stop stop-color="#5550FF"/>
<stop offset="1" stop-color="#AD4BFF"/>
</linearGradient>
</defs>
</svg>
