<svg width="173" height="48" viewBox="0 0 173 48" fill="none" xmlns="http://www.w3.org/2000/svg">
<path d="M160.784 36.9504C159.767 36.9504 159.046 36.864 158.624 36.6912C158.202 36.528 157.99 36.4464 157.99 36.4464V33.7679L159.474 33.8255C160.117 33.8639 160.635 33.8303 161.029 33.7247C161.423 33.6287 161.72 33.4991 161.922 33.3359C162.123 33.1727 162.267 32.9999 162.354 32.8175C162.45 32.6447 162.517 32.5055 162.555 32.3999L162.829 31.5791L157.04 17.3086H161.202L164.773 27.0143L168.373 17.3086H172.492L166.458 32.2847C165.939 33.5519 165.387 34.5215 164.802 35.1936C164.226 35.8656 163.602 36.3264 162.93 36.576C162.267 36.8256 161.552 36.9504 160.784 36.9504Z" fill="#030F2B"/>
<path d="M148.307 32.1995V20.233H145.557V17.3098H148.307V15.1642C148.307 13.9642 148.662 13.033 149.373 12.3706C150.083 11.7082 151.082 11.377 152.368 11.377H155.781L155.81 14.1706H153.837C153.309 14.1706 152.944 14.305 152.742 14.5738C152.541 14.833 152.44 15.265 152.44 15.8698V17.3098H155.666V20.233H152.526V32.1995H148.307Z" fill="#030F2B"/>
<path d="M136.988 32.4853C135.529 32.4853 134.257 32.1733 133.172 31.5493C132.097 30.9253 131.262 30.042 130.667 28.8996C130.081 27.7572 129.788 26.4036 129.788 24.8388C129.788 23.274 130.081 21.906 130.667 20.7348C131.262 19.5636 132.097 18.6515 133.172 17.9987C134.257 17.3459 135.534 17.0195 137.003 17.0195C138.471 17.0195 139.744 17.3411 140.819 17.9843C141.894 18.6179 142.724 19.5204 143.31 20.6916C143.896 21.8628 144.188 23.2452 144.188 24.8388C144.188 26.3364 143.9 27.6612 143.324 28.8132C142.758 29.9556 141.937 30.8533 140.862 31.5061C139.796 32.1589 138.505 32.4853 136.988 32.4853ZM137.003 29.3604C137.742 29.3604 138.337 29.1444 138.788 28.7124C139.24 28.2804 139.566 27.714 139.768 27.0132C139.969 26.3028 140.07 25.53 140.07 24.6948C140.07 23.9076 139.979 23.1636 139.796 22.4628C139.614 21.762 139.297 21.1956 138.846 20.7636C138.395 20.3316 137.78 20.1156 137.003 20.1156C136.263 20.1156 135.663 20.322 135.203 20.7348C134.751 21.138 134.42 21.69 134.209 22.3908C133.998 23.082 133.892 23.85 133.892 24.6948C133.892 25.4724 133.988 26.2212 134.18 26.9412C134.372 27.6516 134.694 28.2324 135.145 28.6836C135.596 29.1348 136.215 29.3604 137.003 29.3604Z" fill="#030F2B"/>
<path d="M126.64 32.4566C125.545 32.4566 124.677 32.327 124.033 32.0678C123.39 31.8086 122.915 31.4678 122.608 31.0454C122.301 30.6134 122.104 30.1382 122.017 29.6198C121.931 29.0918 121.888 28.559 121.888 28.0214V10.7988H126.006V27.503C126.006 28.0502 126.121 28.4966 126.352 28.8422C126.592 29.1782 127.038 29.3846 127.691 29.4614L128.397 29.5046V32.0966C128.109 32.1926 127.816 32.2742 127.518 32.3414C127.221 32.4182 126.928 32.4566 126.64 32.4566Z" fill="#030F2B"/>
<path d="M104.815 32.1974V10.7988H108.992V19.4533C109.232 19.1077 109.534 18.7669 109.899 18.4309C110.264 18.0853 110.72 17.7973 111.267 17.5669C111.814 17.3365 112.481 17.2213 113.268 17.2213C114.219 17.2213 115.083 17.4085 115.86 17.7829C116.648 18.1477 117.277 18.6805 117.747 19.3813C118.227 20.0821 118.467 20.9365 118.467 21.9445V32.1974H114.248V22.5637C114.248 21.8917 114.003 21.3781 113.513 21.0229C113.033 20.6581 112.448 20.4757 111.756 20.4757C111.305 20.4757 110.868 20.5573 110.446 20.7205C110.024 20.8837 109.678 21.1333 109.409 21.4693C109.15 21.7957 109.02 22.2037 109.02 22.6933V32.1974H104.815Z" fill="#030F2B"/>
<path d="M95.6291 32.4853C94.2467 32.4853 93.0131 32.1781 91.9282 31.5637C90.8434 30.9493 89.989 30.0708 89.365 28.9284C88.7506 27.7764 88.4434 26.4036 88.4434 24.81C88.4434 23.274 88.741 21.9204 89.3362 20.7492C89.9314 19.578 90.7666 18.6659 91.8418 18.0131C92.9267 17.3507 94.1891 17.0195 95.6291 17.0195C96.8772 17.0195 97.9524 17.2739 98.8548 17.7827C99.7668 18.2915 100.482 18.9779 101 19.842C101.528 20.706 101.831 21.6708 101.908 22.7364H98.4084C98.3412 22.3428 98.202 21.954 97.9908 21.57C97.7796 21.1764 97.482 20.8548 97.098 20.6052C96.714 20.346 96.2339 20.2164 95.6579 20.2164C94.6787 20.2164 93.8819 20.5956 93.2675 21.354C92.6627 22.1028 92.3603 23.2452 92.3603 24.7812C92.3603 26.2308 92.6579 27.3828 93.2531 28.2372C93.8483 29.082 94.6787 29.5044 95.7443 29.5044C96.3107 29.5044 96.7812 29.3652 97.1556 29.0868C97.5396 28.8084 97.8372 28.4772 98.0484 28.0932C98.2596 27.6996 98.394 27.3348 98.4516 26.9988H101.864C101.797 28.026 101.5 28.9572 100.972 29.7924C100.444 30.6181 99.7236 31.2757 98.8116 31.7653C97.9092 32.2453 96.8484 32.4853 95.6291 32.4853Z" fill="#030F2B"/>
<path d="M79.3952 32.4853C77.9167 32.4853 76.6159 32.1781 75.4927 31.5637C74.3791 30.9397 73.5102 30.0612 72.8862 28.9284C72.2622 27.7956 71.9502 26.4612 71.9502 24.9252C71.9502 23.4372 72.2334 22.098 72.7998 20.9076C73.3758 19.7076 74.2014 18.7619 75.2767 18.0707C76.3519 17.3699 77.6527 17.0195 79.1792 17.0195C80.696 17.0195 81.968 17.3411 82.9953 17.9843C84.0225 18.6179 84.8001 19.506 85.3281 20.6484C85.8561 21.7812 86.1201 23.0916 86.1201 24.5796V25.7172H76.1119C76.1119 26.4756 76.2367 27.138 76.4863 27.7044C76.7359 28.2612 77.0959 28.6932 77.5663 29.0004C78.0463 29.298 78.6224 29.4468 79.2944 29.4468C80.0144 29.4468 80.6432 29.2932 81.1808 28.986C81.7184 28.6788 82.0976 28.1748 82.3184 27.474H86.1057C85.9329 28.53 85.5105 29.4324 84.8385 30.1812C84.1665 30.9301 83.3505 31.5013 82.3904 31.8949C81.4304 32.2885 80.432 32.4853 79.3952 32.4853ZM76.1119 23.2116H82.1888C82.1888 22.6164 82.0736 22.0692 81.8432 21.57C81.6224 21.0708 81.2864 20.6772 80.8352 20.3892C80.3936 20.1012 79.8368 19.9572 79.1648 19.9572C78.5215 19.9572 77.9695 20.1156 77.5087 20.4324C77.0575 20.7396 76.7071 21.1428 76.4575 21.642C76.2175 22.1412 76.1023 22.6644 76.1119 23.2116Z" fill="#030F2B"/>
<path d="M62.042 32.1995V15.121H55.749V11.377H72.4102V15.121H66.2613V32.1995H62.042Z" fill="#030F2B"/>
<path d="M46.0849 21.1246L26.8764 1.91633C25.29 0.329959 22.7121 0.329959 21.1257 1.91633L1.91718 21.1246C0.330789 22.711 0.330789 25.2888 1.91718 26.8752L21.1257 46.0834C22.7121 47.6698 25.29 47.6698 26.8764 46.0834L46.0849 26.8752C47.6713 25.2888 47.6713 22.711 46.0849 21.1246ZM25.6469 36.6379C24.7348 37.5501 23.2674 37.5501 22.3552 36.6379L11.3628 25.6457C10.4506 24.7336 10.4506 23.2662 11.3628 22.354L22.3552 11.3618C23.2674 10.4497 24.7348 10.4497 25.6469 11.3618L36.6393 22.354C37.5515 23.2662 37.5515 24.7336 36.6393 25.6457L25.6469 36.6379Z" fill="url(#paint0_linear_1_549)"/>
<path d="M33.2557 22.7957L25.2047 14.7448C24.5371 14.0772 23.4597 14.0772 22.7987 14.7448L14.7478 22.7957C14.0802 23.4632 14.0802 24.5407 14.7478 25.2016L22.7987 33.2525C23.4663 33.92 24.5437 33.92 25.2047 33.2525L33.2491 25.2083C33.9167 24.5407 33.9167 23.4566 33.2557 22.7957Z" fill="#3CEDB7"/>
<g opacity="0.24">
<path d="M38.0672 3.47018C38.8604 2.677 38.8604 1.38807 38.0672 0.594888C37.274 -0.198296 35.9851 -0.198296 35.1919 0.594888L31.5498 4.23692L34.4185 7.11882L38.0672 3.47018Z" fill="#030F2B"/>
<path d="M42.7342 8.14422C43.5274 7.35103 43.5274 6.06211 42.7342 5.26893C41.941 4.47574 40.6521 4.47574 39.8589 5.26893L36.2168 8.91096L39.0921 11.7863L42.7342 8.14422Z" fill="#030F2B"/>
<path d="M47.4012 12.81C48.1944 12.0168 48.1944 10.7279 47.4012 9.93473C46.608 9.14155 45.3191 9.14155 44.5259 9.93473L40.8838 13.5768L43.7591 16.4521L47.4012 12.81Z" fill="#030F2B"/>
</g>
<g opacity="0.24">
<path d="M44.5239 38.0642C45.3171 38.8574 46.6061 38.8574 47.3993 38.0642C48.1925 37.271 48.1925 35.9821 47.3993 35.1889L43.7572 31.5469L40.8818 34.4222L44.5239 38.0642Z" fill="#030F2B"/>
<path d="M39.8589 42.7322C40.6521 43.5253 41.941 43.5253 42.7342 42.7322C43.5274 41.939 43.5274 40.6501 42.7342 39.8569L39.0921 36.2148L36.2168 39.0901L39.8589 42.7322Z" fill="#030F2B"/>
<path d="M35.1917 47.3962C35.9849 48.1894 37.2738 48.1894 38.067 47.3962C38.8602 46.603 38.8602 45.3141 38.067 44.5209L34.4183 40.8789L31.543 43.7542L35.1917 47.3962Z" fill="#030F2B"/>
</g>
<g opacity="0.24">
<path d="M9.93474 44.5307C9.14154 45.3239 9.14154 46.6128 9.93474 47.406C10.7279 48.1992 12.0169 48.1992 12.8101 47.406L16.4522 43.764L13.5768 40.8887L9.93474 44.5307Z" fill="#030F2B"/>
<path d="M5.26775 39.8569C4.47455 40.6501 4.47455 41.939 5.26775 42.7322C6.06094 43.5253 7.34989 43.5253 8.14308 42.7322L11.7852 39.0901L8.90984 36.2148L5.26775 39.8569Z" fill="#030F2B"/>
<path d="M0.601732 35.1889C-0.191463 35.9821 -0.191463 37.271 0.601732 38.0642C1.39493 38.8574 2.68387 38.8574 3.47707 38.0642L7.11915 34.4222L4.24382 31.5469L0.601732 35.1889Z" fill="#030F2B"/>
</g>
<g opacity="0.24">
<path d="M3.47023 9.93459C2.67703 9.14141 1.38809 9.14141 0.594896 9.93459C-0.198299 10.7278 -0.198299 12.0167 0.594896 12.8099L4.23699 16.4519L7.11232 13.5766L3.47023 9.93459Z" fill="#030F2B"/>
<path d="M8.14308 5.26872C7.34989 4.47553 6.06094 4.47553 5.26775 5.26872C4.47455 6.0619 4.47455 7.35082 5.26775 8.14401L8.90984 11.786L11.7852 8.91075L8.14308 5.26872Z" fill="#030F2B"/>
<path d="M12.8101 0.600747C12.0169 -0.192437 10.7279 -0.192437 9.93474 0.600747C9.14154 1.39393 9.14154 2.68285 9.93474 3.47604L13.5768 7.11807L16.4522 4.24278L12.8101 0.600747Z" fill="#030F2B"/>
</g>
<defs>
<linearGradient id="paint0_linear_1_549" x1="0.727386" y1="23.9999" x2="47.2747" y2="23.9999" gradientUnits="userSpaceOnUse">
<stop stop-color="#5550FF"/>
<stop offset="1" stop-color="#AD4BFF"/>
</linearGradient>
</defs>
</svg>
